<svg width="430" height="936" viewBox="0 0 430 936" fill="none" xmlns="http://www.w3.org/2000/svg">
<g clip-path="url(#clip0_630_83)">
<path fill-rule="evenodd" clip-rule="evenodd" d="M-154.84 984.603C-153.841 985.302 -153.598 986.68 -154.298 987.679L-181.788 1026.96C-184.167 1030.36 -188.85 1031.19 -192.248 1028.81L-234.23 999.425C-237.628 997.047 -238.455 992.363 -236.076 988.964L-208.585 949.685C-207.885 948.685 -206.508 948.442 -205.508 949.141L-154.84 984.603ZM-185.274 974.159C-188.013 972.241 -191.788 972.908 -193.706 975.647L-197.852 981.572L-203.777 977.425C-206.517 975.508 -210.292 976.175 -212.209 978.914C-214.126 981.653 -213.46 985.429 -210.72 987.346L-204.795 991.492L-208.942 997.417C-210.859 1000.16 -210.193 1003.93 -207.453 1005.85C-204.714 1007.77 -200.939 1007.1 -199.022 1004.36L-194.875 998.436L-188.95 1002.58C-186.211 1004.5 -182.436 1003.83 -180.518 1001.09C-178.601 998.354 -179.268 994.579 -182.007 992.662L-187.932 988.515L-183.785 982.59C-181.868 979.851 -182.534 976.076 -185.274 974.159Z" fill="white"/>
<path fill-rule="evenodd" clip-rule="evenodd" d="M-31.6606 1070.81C-30.6612 1071.51 -30.4182 1072.89 -31.1178 1073.89L-58.6087 1113.17C-60.9876 1116.57 -65.6706 1117.4 -69.0686 1115.02L-111.051 1085.64C-114.449 1083.26 -115.275 1078.57 -112.896 1075.18L-85.4051 1035.9C-84.7054 1034.9 -83.328 1034.65 -82.3286 1035.35L-31.6606 1070.81ZM-62.0942 1060.37C-64.8337 1058.45 -68.6087 1059.12 -70.526 1061.86L-74.6726 1067.78L-80.5974 1063.64C-83.3369 1061.72 -87.1119 1062.39 -89.0292 1065.12C-90.9465 1067.86 -90.28 1071.64 -87.5405 1073.56L-81.6158 1077.7L-85.7624 1083.63C-87.6797 1086.37 -87.0132 1090.14 -84.2737 1092.06C-81.5342 1093.98 -77.7592 1093.31 -75.8419 1090.57L-71.6953 1084.65L-65.7705 1088.79C-63.0311 1090.71 -59.256 1090.04 -57.3387 1087.3C-55.4214 1084.56 -56.0879 1080.79 -58.8274 1078.87L-64.7521 1074.73L-60.6055 1068.8C-58.6882 1066.06 -59.3547 1062.29 -62.0942 1060.37Z" fill="white"/>
<path fill-rule="evenodd" clip-rule="evenodd" d="M91.5191 1157.02C92.5185 1157.72 92.7615 1159.1 92.0619 1160.1L64.571 1199.38C62.1921 1202.78 57.5091 1203.61 54.1111 1201.23L12.129 1171.85C8.731 1169.47 7.90489 1164.79 10.2838 1161.39L37.7746 1122.11C38.4743 1121.11 39.8518 1120.86 40.8512 1121.56L91.5191 1157.02ZM61.0855 1146.58C58.346 1144.66 54.571 1145.33 52.6537 1148.07L48.5071 1153.99L42.5823 1149.85C39.8428 1147.93 36.0678 1148.6 34.1505 1151.34C32.2332 1154.08 32.8997 1157.85 35.6392 1159.77L41.5639 1163.91L37.4173 1169.84C35.5 1172.58 36.1665 1176.35 38.906 1178.27C41.6455 1180.19 45.4205 1179.52 47.3378 1176.78L51.4844 1170.86L57.4092 1175C60.1487 1176.92 63.9237 1176.25 65.841 1173.52C67.7583 1170.78 67.0918 1167 64.3523 1165.08L58.4276 1160.94L62.5742 1155.01C64.4915 1152.27 63.825 1148.5 61.0855 1146.58Z" fill="white"/>
<path fill-rule="evenodd" clip-rule="evenodd" d="M214.699 1243.24C215.698 1243.93 215.941 1245.31 215.242 1246.31L187.751 1285.59C185.372 1288.99 180.689 1289.82 177.291 1287.44L135.309 1258.06C131.911 1255.68 131.085 1251 133.463 1247.6L160.954 1208.32C161.654 1207.32 163.031 1207.07 164.031 1207.77L214.699 1243.24ZM184.265 1232.79C181.526 1230.87 177.751 1231.54 175.833 1234.28L171.687 1240.2L165.762 1236.06C163.023 1234.14 159.247 1234.81 157.33 1237.55C155.413 1240.29 156.079 1244.06 158.819 1245.98L164.744 1250.12L160.597 1256.05C158.68 1258.79 159.346 1262.56 162.086 1264.48C164.825 1266.4 168.6 1265.73 170.518 1262.99L174.664 1257.07L180.589 1261.21C183.328 1263.13 187.103 1262.47 189.021 1259.73C190.938 1256.99 190.272 1253.21 187.532 1251.29L181.607 1247.15L185.754 1241.22C187.671 1238.48 187.005 1234.71 184.265 1232.79Z" fill="white"/>
<path fill-rule="evenodd" clip-rule="evenodd" d="M337.879 1329.45C338.878 1330.15 339.121 1331.52 338.421 1332.52L310.93 1371.8C308.552 1375.2 303.868 1376.03 300.471 1373.65L258.488 1344.27C255.09 1341.89 254.264 1337.21 256.643 1333.81L284.134 1294.53C284.834 1293.53 286.211 1293.29 287.211 1293.98L337.879 1329.45ZM307.445 1319C304.705 1317.08 300.93 1317.75 299.013 1320.49L294.866 1326.42L288.942 1322.27C286.202 1320.35 282.427 1321.02 280.51 1323.76C278.593 1326.5 279.259 1330.27 281.999 1332.19L287.923 1336.34L283.777 1342.26C281.859 1345 282.526 1348.78 285.265 1350.69C288.005 1352.61 291.78 1351.94 293.697 1349.2L297.844 1343.28L303.769 1347.43C306.508 1349.34 310.283 1348.68 312.2 1345.94C314.118 1343.2 313.451 1339.42 310.712 1337.5L304.787 1333.36L308.934 1327.43C310.851 1324.69 310.184 1320.92 307.445 1319Z" fill="white"/>
<path fill-rule="evenodd" clip-rule="evenodd" d="M461.058 1415.66C462.058 1416.36 462.301 1417.73 461.601 1418.73L434.11 1458.01C431.731 1461.41 427.048 1462.24 423.65 1459.86L381.668 1430.48C378.27 1428.1 377.444 1423.42 379.823 1420.02L407.314 1380.74C408.013 1379.74 409.391 1379.5 410.39 1380.2L461.058 1415.66ZM430.625 1405.21C427.885 1403.3 424.11 1403.96 422.193 1406.7L418.046 1412.63L412.121 1408.48C409.382 1406.56 405.607 1407.23 403.69 1409.97C401.772 1412.71 402.439 1416.48 405.178 1418.4L411.103 1422.55L406.956 1428.47C405.039 1431.21 405.706 1434.99 408.445 1436.9C411.185 1438.82 414.96 1438.15 416.877 1435.41L421.024 1429.49L426.948 1433.64C429.688 1435.55 433.463 1434.89 435.38 1432.15C437.297 1429.41 436.631 1425.63 433.891 1423.72L427.967 1419.57L432.113 1413.64C434.031 1410.9 433.364 1407.13 430.625 1405.21Z" fill="white"/>
<path d="M-144.85 965.706C-142.651 967.245 -142.117 970.275 -143.656 972.475L-149.23 980.439C-149.93 981.439 -151.307 981.682 -152.307 980.983L-202.975 945.521C-203.974 944.822 -204.217 943.444 -203.517 942.445L-197.943 934.48C-196.404 932.281 -193.374 931.745 -191.175 933.284L-144.85 965.706Z" fill="white"/>
<path d="M-21.6702 1051.92C-19.4715 1053.46 -18.937 1056.49 -20.4763 1058.69L-26.0504 1066.65C-26.7501 1067.65 -28.1275 1067.89 -29.1269 1067.19L-79.7948 1031.73C-80.7942 1031.03 -81.0373 1029.66 -80.3377 1028.66L-74.7635 1020.69C-73.2242 1018.49 -70.194 1017.96 -67.9953 1019.49L-21.6702 1051.92Z" fill="white"/>
<path d="M101.509 1138.13C103.708 1139.67 104.243 1142.7 102.703 1144.9L97.1293 1152.86C96.4296 1153.86 95.0522 1154.1 94.0528 1153.4L43.3849 1117.94C42.3855 1117.24 42.1424 1115.87 42.842 1114.87L48.4162 1106.9C49.9555 1104.7 52.9857 1104.17 55.1844 1105.71L101.509 1138.13Z" fill="white"/>
<path d="M224.689 1224.34C226.888 1225.88 227.422 1228.91 225.883 1231.11L220.309 1239.07C219.609 1240.07 218.232 1240.31 217.233 1239.62L166.565 1204.15C165.565 1203.45 165.322 1202.08 166.022 1201.08L171.596 1193.11C173.135 1190.91 176.165 1190.38 178.364 1191.92L224.689 1224.34Z" fill="white"/>
<path d="M347.869 1310.55C350.068 1312.09 350.602 1315.12 349.063 1317.32L343.489 1325.28C342.789 1326.28 341.412 1326.53 340.412 1325.83L289.744 1290.36C288.745 1289.66 288.502 1288.29 289.201 1287.29L294.776 1279.32C296.315 1277.12 299.345 1276.59 301.544 1278.13L347.869 1310.55Z" fill="white"/>
<path d="M471.049 1396.76C473.247 1398.3 473.782 1401.33 472.243 1403.53L466.668 1411.49C465.969 1412.49 464.591 1412.74 463.592 1412.04L412.924 1376.58C411.925 1375.88 411.682 1374.5 412.381 1373.5L417.955 1365.53C419.495 1363.33 422.525 1362.8 424.724 1364.34L471.049 1396.76Z" fill="white"/>
<path fill-rule="evenodd" clip-rule="evenodd" d="M-134.807 825.166C-133.807 825.865 -133.564 827.243 -134.264 828.242L-161.755 867.522C-164.134 870.921 -168.817 871.748 -172.215 869.37L-214.197 839.988C-217.595 837.61 -218.421 832.926 -216.042 829.527L-188.551 790.248C-187.852 789.248 -186.474 789.005 -185.475 789.704L-134.807 825.166ZM-165.24 814.721C-167.98 812.804 -171.755 813.47 -173.672 816.21L-177.819 822.135L-183.744 817.988C-186.483 816.071 -190.258 816.737 -192.175 819.477C-194.093 822.216 -193.426 825.991 -190.687 827.909L-184.762 832.055L-188.909 837.98C-190.826 840.719 -190.159 844.495 -187.42 846.412C-184.68 848.329 -180.905 847.663 -178.988 844.923L-174.841 838.998L-168.917 843.145C-166.177 845.062 -162.402 844.396 -160.485 841.656C-158.568 838.917 -159.234 835.142 -161.974 833.224L-167.898 829.078L-163.752 823.153C-161.834 820.414 -162.501 816.639 -165.24 814.721Z" fill="white"/>
<path fill-rule="evenodd" clip-rule="evenodd" d="M-11.627 911.376C-10.6276 912.076 -10.3846 913.453 -11.0843 914.453L-38.5751 953.733C-40.954 957.132 -45.6371 957.959 -49.0351 955.581L-91.0172 926.199C-94.4152 923.82 -95.2413 919.137 -92.8624 915.738L-65.3715 876.459C-64.6719 875.459 -63.2944 875.215 -62.295 875.915L-11.627 911.376ZM-42.0606 900.932C-44.8001 899.015 -48.5752 899.681 -50.4925 902.421L-54.6391 908.346L-60.5638 904.199C-63.3033 902.282 -67.0784 902.948 -68.9957 905.688C-70.913 908.427 -70.2465 912.202 -67.507 914.119L-61.5822 918.266L-65.7288 924.191C-67.6461 926.93 -66.9796 930.705 -64.2402 932.623C-61.5007 934.54 -57.7256 933.873 -55.8083 931.134L-51.6617 925.209L-45.737 929.356C-42.9975 931.273 -39.2224 930.607 -37.3051 927.867C-35.3878 925.128 -36.0543 921.353 -38.7938 919.435L-44.7186 915.289L-40.572 909.364C-38.6547 906.624 -39.3212 902.849 -42.0606 900.932Z" fill="white"/>
<path fill-rule="evenodd" clip-rule="evenodd" d="M111.553 997.587C112.552 998.287 112.795 999.664 112.095 1000.66L84.6046 1039.94C82.2257 1043.34 77.5426 1044.17 74.1447 1041.79L32.1625 1012.41C28.7645 1010.03 27.9384 1005.35 30.3173 1001.95L57.8082 962.669C58.5078 961.67 59.8853 961.426 60.8847 962.126L111.553 997.587ZM81.1191 987.143C78.3796 985.226 74.6045 985.892 72.6872 988.632L68.5406 994.556L62.6159 990.41C59.8764 988.492 56.1013 989.159 54.184 991.898C52.2667 994.638 52.9332 998.413 55.6727 1000.33L61.5975 1004.48L57.4509 1010.4C55.5336 1013.14 56.2001 1016.92 58.9395 1018.83C61.679 1020.75 65.4541 1020.08 67.3714 1017.34L71.518 1011.42L77.4427 1015.57C80.1822 1017.48 83.9573 1016.82 85.8746 1014.08C87.7919 1011.34 87.1254 1007.56 84.3859 1005.65L78.4611 1001.5L82.6077 995.575C84.525 992.835 83.8585 989.06 81.1191 987.143Z" fill="white"/>
<path fill-rule="evenodd" clip-rule="evenodd" d="M234.732 1083.8C235.732 1084.5 235.975 1085.88 235.275 1086.87L207.784 1126.15C205.405 1129.55 200.722 1130.38 197.324 1128L155.342 1098.62C151.944 1096.24 151.118 1091.56 153.497 1088.16L180.988 1048.88C181.688 1047.88 183.065 1047.64 184.064 1048.34L234.732 1083.8ZM204.299 1073.35C201.559 1071.44 197.784 1072.1 195.867 1074.84L191.72 1080.77L185.796 1076.62C183.056 1074.7 179.281 1075.37 177.364 1078.11C175.446 1080.85 176.113 1084.62 178.852 1086.54L184.777 1090.69L180.631 1096.61C178.713 1099.35 179.38 1103.13 182.119 1105.04C184.859 1106.96 188.634 1106.3 190.551 1103.56L194.698 1097.63L200.622 1101.78C203.362 1103.69 207.137 1103.03 209.054 1100.29C210.972 1097.55 210.305 1093.77 207.566 1091.86L201.641 1087.71L205.787 1081.79C207.705 1079.05 207.038 1075.27 204.299 1073.35Z" fill="white"/>
<path fill-rule="evenodd" clip-rule="evenodd" d="M357.912 1170.01C358.911 1170.71 359.154 1172.09 358.455 1173.09L330.964 1212.36C328.585 1215.76 323.902 1216.59 320.504 1214.21L278.522 1184.83C275.124 1182.45 274.298 1177.77 276.677 1174.37L304.168 1135.09C304.867 1134.09 306.245 1133.85 307.244 1134.55L357.912 1170.01ZM327.478 1159.56C324.739 1157.65 320.964 1158.31 319.047 1161.05L314.9 1166.98L308.975 1162.83C306.236 1160.91 302.461 1161.58 300.543 1164.32C298.626 1167.06 299.293 1170.83 302.032 1172.75L307.957 1176.9L303.81 1182.82C301.893 1185.56 302.559 1189.34 305.299 1191.26C308.038 1193.17 311.813 1192.51 313.731 1189.77L317.877 1183.84L323.802 1187.99C326.542 1189.91 330.317 1189.24 332.234 1186.5C334.151 1183.76 333.485 1179.99 330.745 1178.07L324.821 1173.92L328.967 1168C330.884 1165.26 330.218 1161.48 327.478 1159.56Z" fill="white"/>
<path fill-rule="evenodd" clip-rule="evenodd" d="M481.092 1256.22C482.091 1256.92 482.334 1258.3 481.635 1259.3L454.144 1298.58C451.765 1301.97 447.082 1302.8 443.684 1300.42L401.702 1271.04C398.304 1268.66 397.478 1263.98 399.856 1260.58L427.347 1221.3C428.047 1220.3 429.424 1220.06 430.424 1220.76L481.092 1256.22ZM450.658 1245.78C447.919 1243.86 444.144 1244.52 442.226 1247.26L438.08 1253.19L432.155 1249.04C429.416 1247.12 425.64 1247.79 423.723 1250.53C421.806 1253.27 422.472 1257.05 425.212 1258.96L431.137 1263.11L426.99 1269.03C425.073 1271.77 425.739 1275.55 428.479 1277.47C431.218 1279.38 434.993 1278.72 436.91 1275.98L441.057 1270.05L446.982 1274.2C449.721 1276.12 453.496 1275.45 455.414 1272.71C457.331 1269.97 456.664 1266.2 453.925 1264.28L448 1260.13L452.147 1254.21C454.064 1251.47 453.398 1247.69 450.658 1245.78Z" fill="white"/>
<path d="M-124.816 806.269C-122.618 807.808 -122.083 810.838 -123.622 813.037L-129.197 821.002C-129.896 822.001 -131.274 822.245 -132.273 821.545L-182.941 786.084C-183.94 785.384 -184.183 784.007 -183.484 783.007L-177.91 775.043C-176.37 772.844 -173.34 772.308 -171.141 773.847L-124.816 806.269Z" fill="white"/>
<path d="M-1.63667 892.48C0.562013 894.018 1.09657 897.049 -0.442703 899.248L-6.01687 907.213C-6.71654 908.212 -8.09392 908.456 -9.09332 907.756L-59.7613 872.295C-60.7607 871.595 -61.0038 870.218 -60.3041 869.218L-54.73 861.254C-53.1907 859.054 -50.1604 858.519 -47.9617 860.058L-1.63667 892.48Z" fill="white"/>
<path d="M121.543 978.69C123.742 980.229 124.276 983.26 122.737 985.459L117.163 993.423C116.463 994.423 115.086 994.666 114.086 993.967L63.4184 958.506C62.419 957.806 62.1759 956.429 62.8756 955.429L68.4498 947.464C69.989 945.265 73.0193 944.73 75.218 946.268L121.543 978.69Z" fill="white"/>
<path d="M244.723 1064.9C246.921 1066.44 247.456 1069.47 245.917 1071.67L240.343 1079.63C239.643 1080.63 238.265 1080.88 237.266 1080.18L186.598 1044.72C185.599 1044.02 185.356 1042.64 186.055 1041.64L191.629 1033.68C193.169 1031.48 196.199 1030.94 198.398 1032.48L244.723 1064.9Z" fill="white"/>
<path d="M367.902 1151.11C370.101 1152.65 370.636 1155.68 369.096 1157.88L363.522 1165.85C362.823 1166.84 361.445 1167.09 360.446 1166.39L309.778 1130.93C308.778 1130.23 308.535 1128.85 309.235 1127.85L314.809 1119.89C316.348 1117.69 319.379 1117.15 321.577 1118.69L367.902 1151.11Z" fill="white"/>
<path d="M491.082 1237.32C493.281 1238.86 493.815 1241.89 492.276 1244.09L486.702 1252.06C486.002 1253.06 484.625 1253.3 483.626 1252.6L432.958 1217.14C431.958 1216.44 431.715 1215.06 432.415 1214.06L437.989 1206.1C439.528 1203.9 442.558 1203.36 444.757 1204.9L491.082 1237.32Z" fill="white"/>
<path fill-rule="evenodd" clip-rule="evenodd" d="M-114.773 665.728C-113.774 666.428 -113.531 667.805 -114.23 668.805L-141.721 708.084C-144.1 711.483 -148.783 712.311 -152.181 709.933L-194.163 680.55C-197.561 678.172 -198.387 673.489 -196.009 670.09L-168.518 630.811C-167.818 629.811 -166.441 629.567 -165.441 630.267L-114.773 665.728ZM-145.207 655.284C-147.946 653.367 -151.721 654.033 -153.639 656.773L-157.785 662.697L-163.71 658.551C-166.449 656.634 -170.225 657.3 -172.142 660.04C-174.059 662.779 -173.393 666.554 -170.653 668.471L-164.728 672.618L-168.875 678.543C-170.792 681.282 -170.126 685.057 -167.386 686.975C-164.647 688.892 -160.872 688.225 -158.954 685.486L-154.808 679.561L-148.883 683.708C-146.144 685.625 -142.369 684.959 -140.451 682.219C-138.534 679.48 -139.201 675.705 -141.94 673.787L-147.865 669.641L-143.718 663.716C-141.801 660.976 -142.467 657.201 -145.207 655.284Z" fill="white"/>
<path fill-rule="evenodd" clip-rule="evenodd" d="M8.40652 751.939C9.40592 752.639 9.64892 754.016 8.94925 755.016L-18.5416 794.295C-20.9205 797.694 -25.6035 798.522 -29.0015 796.144L-70.9837 766.761C-74.3816 764.383 -75.2077 759.7 -72.8288 756.301L-45.338 717.021C-44.6383 716.022 -43.2609 715.778 -42.2615 716.478L8.40652 751.939ZM-22.0271 741.495C-24.7666 739.578 -28.5416 740.244 -30.4589 742.984L-34.6055 748.908L-40.5303 744.762C-43.2698 742.844 -47.0448 743.511 -48.9621 746.25C-50.8794 748.99 -50.2129 752.765 -47.4734 754.682L-41.5487 758.829L-45.6953 764.754C-47.6126 767.493 -46.9461 771.268 -44.2066 773.185C-41.4671 775.103 -37.6921 774.436 -35.7748 771.697L-31.6282 765.772L-25.7034 769.919C-22.964 771.836 -19.1889 771.169 -17.2716 768.43C-15.3543 765.69 -16.0208 761.915 -18.7603 759.998L-24.685 755.851L-20.5384 749.927C-18.6211 747.187 -19.2876 743.412 -22.0271 741.495Z" fill="white"/>
<path fill-rule="evenodd" clip-rule="evenodd" d="M131.586 838.15C132.586 838.849 132.829 840.227 132.129 841.227L104.638 880.506C102.259 883.905 97.5762 884.733 94.1782 882.355L52.1961 852.972C48.7981 850.594 47.972 845.911 50.3509 842.512L77.8417 803.232C78.5414 802.232 79.9188 801.989 80.9182 802.689L131.586 838.15ZM101.153 827.706C98.4131 825.788 94.6381 826.455 92.7208 829.194L88.5742 835.119L82.6494 830.973C79.9099 829.055 76.1349 829.722 74.2176 832.461C72.3003 835.201 72.9668 838.976 75.7063 840.893L81.631 845.04L77.4844 850.964C75.5671 853.704 76.2336 857.479 78.9731 859.396C81.7126 861.314 85.4876 860.647 87.4049 857.908L91.5515 851.983L97.4763 856.129C100.216 858.047 103.991 857.38 105.908 854.641C107.825 851.901 107.159 848.126 104.419 846.209L98.4947 842.062L102.641 836.138C104.559 833.398 103.892 829.623 101.153 827.706Z" fill="white"/>
<path fill-rule="evenodd" clip-rule="evenodd" d="M254.766 924.361C255.765 925.06 256.008 926.438 255.309 927.437L227.818 966.717C225.439 970.116 220.756 970.944 217.358 968.565L175.376 939.183C171.978 936.805 171.152 932.121 173.531 928.722L201.021 889.443C201.721 888.443 203.099 888.2 204.098 888.899L254.766 924.361ZM224.332 913.917C221.593 911.999 217.818 912.666 215.9 915.405L211.754 921.33L205.829 917.183C203.09 915.266 199.315 915.933 197.397 918.672C195.48 921.411 196.146 925.187 198.886 927.104L204.811 931.25L200.664 937.175C198.747 939.915 199.413 943.69 202.153 945.607C204.892 947.524 208.667 946.858 210.585 944.118L214.731 938.194L220.656 942.34C223.395 944.258 227.171 943.591 229.088 940.852C231.005 938.112 230.339 934.337 227.599 932.42L221.674 928.273L225.821 922.348C227.738 919.609 227.072 915.834 224.332 913.917Z" fill="white"/>
<path fill-rule="evenodd" clip-rule="evenodd" d="M377.946 1010.57C378.945 1011.27 379.188 1012.65 378.488 1013.65L350.998 1052.93C348.619 1056.33 343.936 1057.15 340.538 1054.78L298.555 1025.39C295.158 1023.02 294.331 1018.33 296.71 1014.93L324.201 975.654C324.901 974.654 326.278 974.411 327.278 975.11L377.946 1010.57ZM347.512 1000.13C344.773 998.21 340.997 998.877 339.08 1001.62L334.934 1007.54L329.009 1003.39C326.269 1001.48 322.494 1002.14 320.577 1004.88C318.66 1007.62 319.326 1011.4 322.066 1013.31L327.99 1017.46L323.844 1023.39C321.927 1026.13 322.593 1029.9 325.333 1031.82C328.072 1033.74 331.847 1033.07 333.764 1030.33L337.911 1024.4L343.836 1028.55C346.575 1030.47 350.35 1029.8 352.268 1027.06C354.185 1024.32 353.518 1020.55 350.779 1018.63L344.854 1014.48L349.001 1008.56C350.918 1005.82 350.251 1002.04 347.512 1000.13Z" fill="white"/>
<path fill-rule="evenodd" clip-rule="evenodd" d="M501.125 1096.78C502.125 1097.48 502.368 1098.86 501.668 1099.86L474.177 1139.14C471.798 1142.54 467.115 1143.37 463.717 1140.99L421.735 1111.6C418.337 1109.23 417.511 1104.54 419.89 1101.14L447.381 1061.86C448.08 1060.86 449.458 1060.62 450.457 1061.32L501.125 1096.78ZM470.692 1086.34C467.952 1084.42 464.177 1085.09 462.26 1087.83L458.113 1093.75L452.189 1089.6C449.449 1087.69 445.674 1088.35 443.757 1091.09C441.839 1093.83 442.506 1097.61 445.245 1099.53L451.17 1103.67L447.024 1109.6C445.106 1112.34 445.773 1116.11 448.512 1118.03C451.252 1119.95 455.027 1119.28 456.944 1116.54L461.091 1110.62L467.015 1114.76C469.755 1116.68 473.53 1116.01 475.447 1113.27C477.365 1110.53 476.698 1106.76 473.959 1104.84L468.034 1100.69L472.18 1094.77C474.098 1092.03 473.431 1088.26 470.692 1086.34Z" fill="white"/>
<path d="M-104.783 646.832C-102.584 648.37 -102.05 651.401 -103.589 653.6L-109.163 661.565C-109.863 662.564 -111.24 662.808 -112.239 662.108L-162.907 626.647C-163.907 625.947 -164.15 624.57 -163.45 623.57L-157.876 615.606C-156.337 613.406 -153.307 612.871 -151.108 614.41L-104.783 646.832Z" fill="white"/>
<path d="M18.3969 733.042C20.5956 734.581 21.1301 737.612 19.5908 739.811L14.0167 747.775C13.317 748.775 11.9396 749.018 10.9402 748.319L-39.7277 712.858C-40.7271 712.158 -40.9702 710.781 -40.2706 709.781L-34.6964 701.816C-33.1571 699.617 -30.1269 699.082 -27.9282 700.62L18.3969 733.042Z" fill="white"/>
<path d="M141.577 819.253C143.775 820.792 144.31 823.822 142.771 826.022L137.196 833.986C136.497 834.986 135.119 835.229 134.12 834.53L83.452 799.068C82.4526 798.369 82.2095 796.991 82.9091 795.992L88.4833 788.027C90.0226 785.828 93.0528 785.292 95.2515 786.831L141.577 819.253Z" fill="white"/>
<path d="M264.756 905.464C266.955 907.003 267.49 910.033 265.95 912.233L260.376 920.197C259.676 921.197 258.299 921.44 257.3 920.741L206.632 885.279C205.632 884.58 205.389 883.202 206.089 882.203L211.663 874.238C213.202 872.039 216.233 871.503 218.431 873.042L264.756 905.464Z" fill="white"/>
<path d="M387.936 991.675C390.135 993.214 390.669 996.244 389.13 998.443L383.556 1006.41C382.856 1007.41 381.479 1007.65 380.479 1006.95L329.811 971.49C328.812 970.79 328.569 969.413 329.269 968.413L334.843 960.449C336.382 958.25 339.412 957.714 341.611 959.253L387.936 991.675Z" fill="white"/>
<path d="M511.116 1077.89C513.314 1079.42 513.849 1082.45 512.31 1084.65L506.736 1092.62C506.036 1093.62 504.658 1093.86 503.659 1093.16L452.991 1057.7C451.992 1057 451.749 1055.62 452.448 1054.62L458.022 1046.66C459.562 1044.46 462.592 1043.92 464.791 1045.46L511.116 1077.89Z" fill="white"/>
<path fill-rule="evenodd" clip-rule="evenodd" d="M-94.7396 506.291C-93.7402 506.991 -93.4972 508.368 -94.1969 509.368L-121.688 548.647C-124.067 552.046 -128.75 552.874 -132.148 550.496L-174.13 521.113C-177.528 518.735 -178.354 514.052 -175.975 510.653L-148.484 471.373C-147.784 470.374 -146.407 470.13 -145.408 470.83L-94.7396 506.291ZM-125.173 495.847C-127.913 493.93 -131.688 494.596 -133.605 497.336L-137.752 503.26L-143.676 499.114C-146.416 497.196 -150.191 497.863 -152.108 500.602C-154.026 503.342 -153.359 507.117 -150.62 509.034L-144.695 513.181L-148.841 519.106C-150.759 521.845 -150.092 525.62 -147.353 527.537C-144.613 529.455 -140.838 528.788 -138.921 526.049L-134.774 520.124L-128.85 524.271C-126.11 526.188 -122.335 525.521 -120.418 522.782C-118.5 520.042 -119.167 516.267 -121.906 514.35L-127.831 510.203L-123.685 504.279C-121.767 501.539 -122.434 497.764 -125.173 495.847Z" fill="white"/>
<path fill-rule="evenodd" clip-rule="evenodd" d="M28.4401 592.502C29.4395 593.201 29.6825 594.579 28.9828 595.579L1.49195 634.858C-0.886917 638.257 -5.57 639.085 -8.96796 636.706L-50.9501 607.324C-54.3481 604.946 -55.1742 600.263 -52.7953 596.864L-25.3045 557.584C-24.6048 556.584 -23.2273 556.341 -22.2279 557.04L28.4401 592.502ZM-1.99355 582.058C-4.73303 580.14 -8.50809 580.807 -10.4254 583.546L-14.572 589.471L-20.4967 585.324C-23.2362 583.407 -27.0113 584.074 -28.9286 586.813C-30.8459 589.553 -30.1794 593.328 -27.4399 595.245L-21.5151 599.392L-25.6617 605.316C-27.579 608.056 -26.9125 611.831 -24.1731 613.748C-21.4336 615.665 -17.6585 614.999 -15.7412 612.26L-11.5946 606.335L-5.66988 610.481C-2.93041 612.399 0.844654 611.732 2.76195 608.993C4.67925 606.253 4.01275 602.478 1.27327 600.561L-4.65148 596.414L-0.504873 590.489C1.41243 587.75 0.745921 583.975 -1.99355 582.058Z" fill="white"/>
<path fill-rule="evenodd" clip-rule="evenodd" d="M151.62 678.713C152.619 679.412 152.862 680.79 152.163 681.789L124.672 721.069C122.293 724.468 117.61 725.295 114.212 722.917L72.2296 693.535C68.8316 691.157 68.0055 686.473 70.3844 683.074L97.8753 643.795C98.5749 642.795 99.9524 642.552 100.952 643.251L151.62 678.713ZM121.186 668.268C118.447 666.351 114.672 667.018 112.754 669.757L108.608 675.682L102.683 671.535C99.9435 669.618 96.1684 670.285 94.2511 673.024C92.3338 675.763 93.0003 679.539 95.7398 681.456L101.665 685.602L97.518 691.527C95.6007 694.267 96.2672 698.042 99.0066 699.959C101.746 701.876 105.521 701.21 107.438 698.47L111.585 692.546L117.51 696.692C120.249 698.609 124.024 697.943 125.942 695.204C127.859 692.464 127.192 688.689 124.453 686.772L118.528 682.625L122.675 676.7C124.592 673.961 123.926 670.186 121.186 668.268Z" fill="white"/>
<path fill-rule="evenodd" clip-rule="evenodd" d="M274.799 764.924C275.799 765.623 276.042 767.001 275.342 768L247.851 807.28C245.472 810.679 240.789 811.506 237.391 809.128L195.409 779.746C192.011 777.368 191.185 772.684 193.564 769.285L221.055 730.006C221.755 729.006 223.132 728.763 224.132 729.462L274.799 764.924ZM244.366 754.479C241.626 752.562 237.851 753.229 235.934 755.968L231.787 761.893L225.863 757.746C223.123 755.829 219.348 756.495 217.431 759.235C215.514 761.974 216.18 765.749 218.92 767.667L224.844 771.813L220.698 777.738C218.78 780.477 219.447 784.253 222.186 786.17C224.926 788.087 228.701 787.421 230.618 784.681L234.765 778.756L240.69 782.903C243.429 784.82 247.204 784.154 249.121 781.414C251.039 778.675 250.372 774.9 247.633 772.982L241.708 768.836L245.855 762.911C247.772 760.172 247.105 756.397 244.366 754.479Z" fill="white"/>
<path fill-rule="evenodd" clip-rule="evenodd" d="M397.979 851.134C398.979 851.834 399.222 853.211 398.522 854.211L371.031 893.491C368.652 896.89 363.969 897.717 360.571 895.339L318.589 865.957C315.191 863.578 314.365 858.895 316.744 855.496L344.235 816.217C344.934 815.217 346.312 814.973 347.311 815.673L397.979 851.134ZM367.546 840.69C364.806 838.773 361.031 839.439 359.114 842.179L354.967 848.104L349.042 843.957C346.303 842.04 342.528 842.706 340.611 845.446C338.693 848.185 339.36 851.96 342.099 853.877L348.024 858.024L343.877 863.949C341.96 866.688 342.627 870.463 345.366 872.381C348.106 874.298 351.881 873.631 353.798 870.892L357.944 864.967L363.869 869.114C366.609 871.031 370.384 870.365 372.301 867.625C374.218 864.886 373.552 861.111 370.812 859.193L364.888 855.047L369.034 849.122C370.952 846.382 370.285 842.607 367.546 840.69Z" fill="white"/>
<path fill-rule="evenodd" clip-rule="evenodd" d="M521.159 937.345C522.158 938.045 522.401 939.422 521.702 940.422L494.211 979.701C491.832 983.1 487.149 983.928 483.751 981.55L441.769 952.167C438.371 949.789 437.545 945.106 439.924 941.707L467.414 902.427C468.114 901.428 469.492 901.184 470.491 901.884L521.159 937.345ZM490.725 926.901C487.986 924.984 484.211 925.65 482.293 928.39L478.147 934.314L472.222 930.168C469.483 928.25 465.708 928.917 463.79 931.656C461.873 934.396 462.539 938.171 465.279 940.088L471.204 944.235L467.057 950.16C465.14 952.899 465.806 956.674 468.546 958.591C471.285 960.509 475.06 959.842 476.978 957.103L481.124 951.178L487.049 955.325C489.788 957.242 493.563 956.575 495.481 953.836C497.398 951.096 496.732 947.321 493.992 945.404L488.067 941.258L492.214 935.333C494.131 932.593 493.465 928.818 490.725 926.901Z" fill="white"/>
<path d="M-84.7493 487.394C-82.5506 488.933 -82.016 491.964 -83.5553 494.163L-89.1295 502.127C-89.8292 503.127 -91.2065 503.37 -92.2059 502.671L-142.874 467.209C-143.873 466.51 -144.116 465.133 -143.417 464.133L-137.843 456.168C-136.303 453.969 -133.273 453.434 -131.074 454.972L-84.7493 487.394Z" fill="white"/>
<path d="M38.4304 573.605C40.6291 575.144 41.1637 578.174 39.6244 580.374L34.0502 588.338C33.3506 589.338 31.9732 589.581 30.9738 588.882L-19.6942 553.42C-20.6936 552.721 -20.9367 551.343 -20.237 550.344L-14.6629 542.379C-13.1236 540.18 -10.0933 539.644 -7.89463 541.183L38.4304 573.605Z" fill="white"/>
<path d="M161.61 659.816C163.809 661.355 164.343 664.385 162.804 666.585L157.23 674.549C156.53 675.549 155.153 675.792 154.153 675.093L103.486 639.631C102.486 638.932 102.243 637.554 102.943 636.555L108.517 628.59C110.056 626.391 113.086 625.855 115.285 627.394L161.61 659.816Z" fill="white"/>
<path d="M284.79 746.027C286.989 747.566 287.523 750.596 285.984 752.795L280.41 760.76C279.71 761.76 278.333 762.003 277.333 761.303L226.665 725.842C225.666 725.142 225.423 723.765 226.122 722.765L231.697 714.801C233.236 712.602 236.266 712.066 238.465 713.605L284.79 746.027Z" fill="white"/>
<path d="M407.97 832.238C410.168 833.776 410.703 836.807 409.164 839.006L403.589 846.971C402.89 847.97 401.512 848.214 400.513 847.514L349.845 812.053C348.846 811.353 348.602 809.976 349.302 808.976L354.876 801.012C356.416 798.812 359.446 798.277 361.644 799.816L407.97 832.238Z" fill="white"/>
<path d="M531.149 918.448C533.348 919.987 533.882 923.018 532.343 925.217L526.769 933.181C526.069 934.181 524.692 934.424 523.693 933.725L473.025 898.264C472.025 897.564 471.782 896.187 472.482 895.187L478.056 887.223C479.595 885.023 482.626 884.488 484.824 886.026L531.149 918.448Z" fill="white"/>
<path fill-rule="evenodd" clip-rule="evenodd" d="M-74.7061 346.854C-73.7067 347.553 -73.4637 348.931 -74.1634 349.931L-101.654 389.21C-104.033 392.609 -108.716 393.437 -112.114 391.058L-154.096 361.676C-157.494 359.298 -158.32 354.615 -155.941 351.216L-128.451 311.936C-127.751 310.936 -126.373 310.693 -125.374 311.392L-74.7061 346.854ZM-105.14 336.41C-107.879 334.492 -111.654 335.159 -113.572 337.898L-117.718 343.823L-123.643 339.676C-126.382 337.759 -130.157 338.426 -132.075 341.165C-133.992 343.905 -133.326 347.68 -130.586 349.597L-124.661 353.744L-128.808 359.668C-130.725 362.408 -130.059 366.183 -127.319 368.1C-124.58 370.017 -120.805 369.351 -118.887 366.611L-114.741 360.687L-108.816 364.833C-106.077 366.751 -102.302 366.084 -100.384 363.345C-98.4669 360.605 -99.1334 356.83 -101.873 354.913L-107.798 350.766L-103.651 344.841C-101.734 342.102 -102.4 338.327 -105.14 336.41Z" fill="white"/>
<path fill-rule="evenodd" clip-rule="evenodd" d="M48.4736 433.065C49.473 433.764 49.716 435.142 49.0163 436.141L21.5255 475.421C19.1466 478.82 14.4636 479.647 11.0656 477.269L-30.9166 447.887C-34.3145 445.509 -35.1406 440.825 -32.7618 437.426L-5.2709 398.147C-4.57124 397.147 -3.19376 396.904 -2.19436 397.603L48.4736 433.065ZM18.04 422.62C15.3005 420.703 11.5255 421.37 9.60816 424.109L5.46156 430.034L-0.463194 425.887C-3.20267 423.97 -6.97773 424.636 -8.89503 427.376C-10.8123 430.115 -10.1458 433.89 -7.40635 435.808L-1.4816 439.954L-5.6282 445.879C-7.5455 448.619 -6.879 452.394 -4.13952 454.311C-1.40005 456.228 2.37501 455.562 4.29231 452.822L8.43892 446.898L14.3637 451.044C17.1031 452.961 20.8782 452.295 22.7955 449.555C24.7128 446.816 24.0463 443.041 21.3068 441.124L15.3821 436.977L19.5287 431.052C21.446 428.313 20.7795 424.538 18.04 422.62Z" fill="white"/>
<path fill-rule="evenodd" clip-rule="evenodd" d="M171.653 519.276C172.653 519.975 172.896 521.353 172.196 522.352L144.705 561.632C142.326 565.031 137.643 565.858 134.245 563.48L92.2632 534.098C88.8652 531.72 88.0391 527.036 90.418 523.637L117.909 484.358C118.608 483.358 119.986 483.115 120.985 483.814L171.653 519.276ZM141.22 508.831C138.48 506.914 134.705 507.58 132.788 510.32L128.641 516.245L122.717 512.098C119.977 510.181 116.202 510.847 114.285 513.587C112.367 516.326 113.034 520.101 115.773 522.019L121.698 526.165L117.552 532.09C115.634 534.829 116.301 538.604 119.04 540.522C121.78 542.439 125.555 541.773 127.472 539.033L131.619 533.108L137.543 537.255C140.283 539.172 144.058 538.506 145.975 535.766C147.893 533.027 147.226 529.252 144.487 527.334L138.562 523.188L142.708 517.263C144.626 514.524 143.959 510.749 141.22 508.831Z" fill="white"/>
<path fill-rule="evenodd" clip-rule="evenodd" d="M294.833 605.486C295.832 606.186 296.075 607.563 295.376 608.563L267.885 647.842C265.506 651.241 260.823 652.069 257.425 649.691L215.443 620.308C212.045 617.93 211.219 613.247 213.598 609.848L241.089 570.569C241.788 569.569 243.166 569.325 244.165 570.025L294.833 605.486ZM264.399 595.042C261.66 593.125 257.885 593.791 255.968 596.531L251.821 602.456L245.896 598.309C243.157 596.392 239.382 597.058 237.464 599.798C235.547 602.537 236.214 606.312 238.953 608.229L244.878 612.376L240.731 618.301C238.814 621.04 239.48 624.815 242.22 626.733C244.959 628.65 248.734 627.983 250.652 625.244L254.798 619.319L260.723 623.466C263.463 625.383 267.238 624.717 269.155 621.977C271.072 619.238 270.406 615.463 267.666 613.545L261.741 609.399L265.888 603.474C267.805 600.734 267.139 596.959 264.399 595.042Z" fill="white"/>
<path fill-rule="evenodd" clip-rule="evenodd" d="M418.013 691.697C419.012 692.397 419.255 693.774 418.555 694.774L391.065 734.053C388.686 737.452 384.003 738.28 380.605 735.902L338.623 706.519C335.225 704.141 334.398 699.458 336.777 696.059L364.268 656.779C364.968 655.78 366.345 655.536 367.345 656.236L418.013 691.697ZM387.579 681.253C384.84 679.336 381.065 680.002 379.147 682.742L375.001 688.666L369.076 684.52C366.336 682.602 362.561 683.269 360.644 686.008C358.727 688.748 359.393 692.523 362.133 694.44L368.058 698.587L363.911 704.512C361.994 707.251 362.66 711.026 365.4 712.943C368.139 714.861 371.914 714.194 373.831 711.455L377.978 705.53L383.903 709.677C386.642 711.594 390.417 710.927 392.335 708.188C394.252 705.448 393.585 701.673 390.846 699.756L384.921 695.609L389.068 689.685C390.985 686.945 390.319 683.17 387.579 681.253Z" fill="white"/>
<path fill-rule="evenodd" clip-rule="evenodd" d="M541.192 777.908C542.192 778.607 542.435 779.985 541.735 780.985L514.244 820.264C511.865 823.663 507.182 824.491 503.784 822.113L461.802 792.73C458.404 790.352 457.578 785.669 459.957 782.27L487.448 742.99C488.148 741.99 489.525 741.747 490.524 742.447L541.192 777.908ZM510.759 767.464C508.019 765.546 504.244 766.213 502.327 768.952L498.18 774.877L492.256 770.731C489.516 768.813 485.741 769.48 483.824 772.219C481.906 774.959 482.573 778.734 485.312 780.651L491.237 784.798L487.091 790.722C485.173 793.462 485.84 797.237 488.579 799.154C491.319 801.072 495.094 800.405 497.011 797.666L501.158 791.741L507.082 795.887C509.822 797.805 513.597 797.138 515.514 794.399C517.432 791.659 516.765 787.884 514.026 785.967L508.101 781.82L512.247 775.896C514.165 773.156 513.498 769.381 510.759 767.464Z" fill="white"/>
<path d="M-64.7157 327.957C-62.517 329.496 -61.9825 332.526 -63.5218 334.726L-69.0959 342.69C-69.7956 343.69 -71.173 343.933 -72.1724 343.234L-122.84 307.772C-123.84 307.073 -124.083 305.695 -123.383 304.696L-117.809 296.731C-116.27 294.532 -113.239 293.996 -111.041 295.535L-64.7157 327.957Z" fill="white"/>
<path d="M58.464 414.168C60.6627 415.707 61.1972 418.737 59.6579 420.936L54.0838 428.901C53.3841 429.901 52.0067 430.144 51.0073 429.444L0.33935 393.983C-0.660043 393.284 -0.903126 391.906 -0.203479 390.906L5.37069 382.942C6.90996 380.743 9.94023 380.207 12.1389 381.746L58.464 414.168Z" fill="white"/>
<path d="M181.644 500.379C183.842 501.918 184.377 504.948 182.838 507.147L177.263 515.112C176.564 516.111 175.186 516.355 174.187 515.655L123.519 480.194C122.52 479.494 122.277 478.117 122.976 477.117L128.55 469.153C130.09 466.953 133.12 466.418 135.319 467.957L181.644 500.379Z" fill="white"/>
<path d="M304.823 586.59C307.022 588.128 307.557 591.159 306.017 593.358L300.443 601.323C299.744 602.322 298.366 602.566 297.367 601.866L246.699 566.405C245.699 565.705 245.456 564.328 246.156 563.328L251.73 555.364C253.269 553.164 256.3 552.629 258.498 554.168L304.823 586.59Z" fill="white"/>
<path d="M428.003 672.8C430.202 674.339 430.736 677.37 429.197 679.569L423.623 687.533C422.923 688.533 421.546 688.776 420.546 688.077L369.878 652.616C368.879 651.916 368.636 650.539 369.336 649.539L374.91 641.574C376.449 639.375 379.479 638.84 381.678 640.378L428.003 672.8Z" fill="white"/>
<path d="M551.183 759.011C553.381 760.55 553.916 763.58 552.377 765.78L546.803 773.744C546.103 774.744 544.726 774.987 543.726 774.288L493.058 738.826C492.059 738.127 491.816 736.749 492.515 735.75L498.09 727.785C499.629 725.586 502.659 725.05 504.858 726.589L551.183 759.011Z" fill="white"/>
<path fill-rule="evenodd" clip-rule="evenodd" d="M-54.6725 187.417C-53.6731 188.116 -53.4301 189.494 -54.1298 190.493L-81.6207 229.773C-83.9995 233.172 -88.6826 233.999 -92.0806 231.621L-134.063 202.239C-137.461 199.861 -138.287 195.177 -135.908 191.778L-108.417 152.499C-107.717 151.499 -106.34 151.256 -105.341 151.955L-54.6725 187.417ZM-85.1062 176.972C-87.8456 175.055 -91.6207 175.722 -93.538 178.461L-97.6846 184.386L-103.609 180.239C-106.349 178.322 -110.124 178.988 -112.041 181.728C-113.958 184.467 -113.292 188.242 -110.553 190.16L-104.628 194.306L-108.774 200.231C-110.692 202.971 -110.025 206.746 -107.286 208.663C-104.546 210.58 -100.771 209.914 -98.8538 207.174L-94.7072 201.249L-88.7825 205.396C-86.043 207.313 -82.268 206.647 -80.3507 203.907C-78.4334 201.168 -79.0999 197.393 -81.8393 195.476L-87.7641 191.329L-83.6175 185.404C-81.7002 182.665 -82.3667 178.89 -85.1062 176.972Z" fill="white"/>
<path fill-rule="evenodd" clip-rule="evenodd" d="M68.5072 273.627C69.5066 274.327 69.7496 275.704 69.0499 276.704L41.559 315.984C39.1802 319.383 34.4971 320.21 31.0991 317.832L-10.883 288.45C-14.281 286.071 -15.1071 281.388 -12.7282 277.989L14.7626 238.71C15.4623 237.71 16.8398 237.467 17.8392 238.166L68.5072 273.627ZM38.0735 263.183C35.3341 261.266 31.559 261.932 29.6417 264.672L25.4951 270.597L19.5704 266.45C16.8309 264.533 13.0558 265.199 11.1385 267.939C9.22122 270.678 9.88773 274.453 12.6272 276.371L18.552 280.517L14.4053 286.442C12.488 289.181 13.1546 292.956 15.894 294.874C18.6335 296.791 22.4086 296.125 24.3259 293.385L28.4725 287.46L34.3972 291.607C37.1367 293.524 40.9118 292.858 42.829 290.118C44.7463 287.379 44.0798 283.604 41.3404 281.686L35.4156 277.54L39.5622 271.615C41.4795 268.876 40.813 265.101 38.0735 263.183Z" fill="white"/>
<path fill-rule="evenodd" clip-rule="evenodd" d="M191.687 359.838C192.686 360.538 192.929 361.915 192.23 362.915L164.739 402.194C162.36 405.593 157.677 406.421 154.279 404.043L112.297 374.66C108.899 372.282 108.073 367.599 110.452 364.2L137.942 324.921C138.642 323.921 140.019 323.677 141.019 324.377L191.687 359.838ZM161.253 349.394C158.514 347.477 154.739 348.143 152.821 350.883L148.675 356.807L142.75 352.661C140.011 350.744 136.236 351.41 134.318 354.15C132.401 356.889 133.067 360.664 135.807 362.581L141.732 366.728L137.585 372.653C135.668 375.392 136.334 379.167 139.074 381.085C141.813 383.002 145.588 382.335 147.506 379.596L151.652 373.671L157.577 377.818C160.316 379.735 164.091 379.069 166.009 376.329C167.926 373.59 167.26 369.815 164.52 367.897L158.595 363.751L162.742 357.826C164.659 355.086 163.993 351.311 161.253 349.394Z" fill="white"/>
<path fill-rule="evenodd" clip-rule="evenodd" d="M314.867 446.049C315.866 446.749 316.109 448.126 315.409 449.126L287.918 488.405C285.54 491.804 280.857 492.632 277.459 490.254L235.476 460.871C232.078 458.493 231.252 453.81 233.631 450.411L261.122 411.131C261.822 410.132 263.199 409.888 264.199 410.588L314.867 446.049ZM284.433 435.605C281.693 433.688 277.918 434.354 276.001 437.094L271.855 443.018L265.93 438.872C263.19 436.954 259.415 437.621 257.498 440.36C255.581 443.1 256.247 446.875 258.987 448.792L264.911 452.939L260.765 458.864C258.847 461.603 259.514 465.378 262.253 467.295C264.993 469.213 268.768 468.546 270.685 465.807L274.832 459.882L280.757 464.029C283.496 465.946 287.271 465.279 289.188 462.54C291.106 459.8 290.439 456.025 287.7 454.108L281.775 449.961L285.922 444.037C287.839 441.297 287.172 437.522 284.433 435.605Z" fill="white"/>
<path fill-rule="evenodd" clip-rule="evenodd" d="M438.046 532.26C439.046 532.959 439.289 534.337 438.589 535.337L411.098 574.616C408.719 578.015 404.036 578.843 400.638 576.464L358.656 547.082C355.258 544.704 354.432 540.021 356.811 536.622L384.302 497.342C385.001 496.342 386.379 496.099 387.378 496.799L438.046 532.26ZM407.613 521.816C404.873 519.898 401.098 520.565 399.181 523.304L395.034 529.229L389.109 525.082C386.37 523.165 382.595 523.832 380.678 526.571C378.76 529.311 379.427 533.086 382.166 535.003L388.091 539.15L383.944 545.074C382.027 547.814 382.694 551.589 385.433 553.506C388.173 555.423 391.948 554.757 393.865 552.018L398.012 546.093L403.936 550.239C406.676 552.157 410.451 551.49 412.368 548.751C414.285 546.011 413.619 542.236 410.879 540.319L404.955 536.172L409.101 530.248C411.019 527.508 410.352 523.733 407.613 521.816Z" fill="white"/>
<path fill-rule="evenodd" clip-rule="evenodd" d="M561.226 618.471C562.225 619.17 562.468 620.548 561.769 621.547L534.278 660.827C531.899 664.226 527.216 665.053 523.818 662.675L481.836 633.293C478.438 630.915 477.612 626.231 479.991 622.832L507.481 583.553C508.181 582.553 509.559 582.31 510.558 583.009L561.226 618.471ZM530.792 608.026C528.053 606.109 524.278 606.776 522.361 609.515L518.214 615.44L512.289 611.293C509.55 609.376 505.775 610.043 503.857 612.782C501.94 615.521 502.607 619.297 505.346 621.214L511.271 625.36L507.124 631.285C505.207 634.025 505.873 637.8 508.613 639.717C511.352 641.634 515.127 640.968 517.045 638.228L521.191 632.304L527.116 636.45C529.856 638.367 533.631 637.701 535.548 634.962C537.465 632.222 536.799 628.447 534.059 626.53L528.134 622.383L532.281 616.458C534.198 613.719 533.532 609.944 530.792 608.026Z" fill="white"/>
<path d="M-44.6822 168.52C-42.4835 170.059 -41.9489 173.089 -43.4882 175.288L-49.0624 183.253C-49.7621 184.253 -51.1394 184.496 -52.1388 183.796L-102.807 148.335C-103.806 147.636 -104.049 146.258 -103.35 145.258L-97.7755 137.294C-96.2362 135.095 -93.2059 134.559 -91.0072 136.098L-44.6822 168.52Z" fill="white"/>
<path d="M78.4975 254.731C80.6962 256.269 81.2308 259.3 79.6915 261.499L74.1173 269.464C73.4176 270.463 72.0403 270.707 71.0409 270.007L20.3729 234.546C19.3735 233.846 19.1304 232.469 19.8301 231.469L25.4042 223.505C26.9435 221.305 29.9738 220.77 32.1725 222.309L78.4975 254.731Z" fill="white"/>
<path d="M201.677 340.941C203.876 342.48 204.41 345.511 202.871 347.71L197.297 355.675C196.597 356.674 195.22 356.918 194.221 356.218L143.553 320.757C142.553 320.057 142.31 318.68 143.01 317.68L148.584 309.716C150.123 307.516 153.153 306.981 155.352 308.52L201.677 340.941Z" fill="white"/>
<path d="M324.857 427.152C327.056 428.691 327.59 431.722 326.051 433.921L320.477 441.885C319.777 442.885 318.4 443.128 317.4 442.429L266.732 406.967C265.733 406.268 265.49 404.891 266.189 403.891L271.764 395.926C273.303 393.727 276.333 393.192 278.532 394.73L324.857 427.152Z" fill="white"/>
<path d="M448.037 513.363C450.235 514.902 450.77 517.932 449.231 520.132L443.656 528.096C442.957 529.096 441.579 529.339 440.58 528.64L389.912 493.178C388.913 492.479 388.67 491.101 389.369 490.102L394.943 482.137C396.483 479.938 399.513 479.402 401.712 480.941L448.037 513.363Z" fill="white"/>
<path d="M571.216 599.574C573.415 601.113 573.95 604.143 572.41 606.343L566.836 614.307C566.136 615.307 564.759 615.55 563.76 614.851L513.092 579.389C512.092 578.69 511.849 577.312 512.549 576.313L518.123 568.348C519.662 566.149 522.693 565.613 524.891 567.152L571.216 599.574Z" fill="white"/>
<path fill-rule="evenodd" clip-rule="evenodd" d="M-34.639 27.9794C-33.6396 28.6789 -33.3966 30.0564 -34.0963 31.0561L-61.5871 70.3356C-63.966 73.7346 -68.6491 74.5622 -72.047 72.184L-114.029 42.8016C-117.427 40.4234 -118.253 35.7401 -115.874 32.3411L-88.3835 -6.93834C-87.6838 -7.93803 -86.3064 -8.18144 -85.307 -7.48199L-34.639 27.9794ZM-65.0726 17.5352C-67.8121 15.6179 -71.5871 16.2844 -73.5044 19.0239L-77.6511 24.9486L-83.5758 20.802C-86.3153 18.8847 -90.0903 19.5512 -92.0076 22.2907C-93.9249 25.0302 -93.2584 28.8052 -90.519 30.7225L-84.5942 34.8691L-88.7408 40.7939C-90.6581 43.5333 -89.9916 47.3084 -87.2521 49.2257C-84.5127 51.143 -80.7376 50.4765 -78.8203 47.737L-74.6737 41.8123L-68.7489 45.9589C-66.0095 47.8762 -62.2344 47.2097 -60.3171 44.4702C-58.3998 41.7307 -59.0663 37.9557 -61.8058 36.0384L-67.7305 31.8918L-63.5839 25.967C-61.6666 23.2275 -62.3331 19.4525 -65.0726 17.5352Z" fill="white"/>
<path fill-rule="evenodd" clip-rule="evenodd" d="M88.5407 114.19C89.5401 114.89 89.7831 116.267 89.0834 117.267L61.5926 156.546C59.2137 159.945 54.5306 160.773 51.1327 158.395L9.15054 129.012C5.75258 126.634 4.92648 121.951 7.30534 118.552L34.7962 79.2725C35.4959 78.2728 36.8733 78.0294 37.8727 78.7288L88.5407 114.19ZM58.1071 103.746C55.3676 101.829 51.5926 102.495 49.6753 105.235L45.5287 111.159L39.6039 107.013C36.8644 105.096 33.0894 105.762 31.1721 108.502C29.2548 111.241 29.9213 115.016 32.6607 116.933L38.5855 121.08L34.4389 127.005C32.5216 129.744 33.1881 133.519 35.9276 135.437C38.667 137.354 42.4421 136.687 44.3594 133.948L48.506 128.023L54.4308 132.17C57.1702 134.087 60.9453 133.42 62.8626 130.681C64.7799 127.942 64.1134 124.166 61.3739 122.249L55.4492 118.103L59.5958 112.178C61.5131 109.438 60.8466 105.663 58.1071 103.746Z" fill="white"/>
<path fill-rule="evenodd" clip-rule="evenodd" d="M211.72 200.401C212.72 201.101 212.963 202.478 212.263 203.478L184.772 242.757C182.393 246.156 177.71 246.984 174.312 244.606L132.33 215.223C128.932 212.845 128.106 208.162 130.485 204.763L157.976 165.483C158.676 164.484 160.053 164.24 161.052 164.94L211.72 200.401ZM181.287 189.957C178.547 188.04 174.772 188.706 172.855 191.445L168.708 197.37L162.784 193.224C160.044 191.306 156.269 191.973 154.352 194.712C152.434 197.452 153.101 201.227 155.84 203.144L161.765 207.291L157.619 213.216C155.701 215.955 156.368 219.73 159.107 221.647C161.847 223.565 165.622 222.898 167.539 220.159L171.686 214.234L177.61 218.381C180.35 220.298 184.125 219.631 186.042 216.892C187.96 214.152 187.293 210.377 184.554 208.46L178.629 204.313L182.775 198.389C184.693 195.649 184.026 191.874 181.287 189.957Z" fill="white"/>
<path fill-rule="evenodd" clip-rule="evenodd" d="M334.9 286.612C335.9 287.311 336.143 288.689 335.443 289.689L307.952 328.968C305.573 332.367 300.89 333.195 297.492 330.816L255.51 301.434C252.112 299.056 251.286 294.373 253.665 290.974L281.156 251.694C281.855 250.694 283.233 250.451 284.232 251.15L334.9 286.612ZM304.467 276.168C301.727 274.25 297.952 274.917 296.035 277.656L291.888 283.581L285.963 279.434C283.224 277.517 279.449 278.184 277.531 280.923C275.614 283.663 276.281 287.438 279.02 289.355L284.945 293.502L280.798 299.426C278.881 302.166 279.548 305.941 282.287 307.858C285.026 309.775 288.802 309.109 290.719 306.369L294.865 300.445L300.79 304.591C303.53 306.509 307.305 305.842 309.222 303.103C311.139 300.363 310.473 296.588 307.733 294.671L301.809 290.524L305.955 284.599C307.872 281.86 307.206 278.085 304.467 276.168Z" fill="white"/>
<path fill-rule="evenodd" clip-rule="evenodd" d="M458.08 372.823C459.079 373.522 459.322 374.9 458.623 375.899L431.132 415.179C428.753 418.578 424.07 419.405 420.672 417.027L378.69 387.645C375.292 385.267 374.466 380.583 376.844 377.184L404.335 337.905C405.035 336.905 406.412 336.662 407.412 337.361L458.08 372.823ZM427.646 362.378C424.907 360.461 421.132 361.128 419.214 363.867L415.068 369.792L409.143 365.645C406.404 363.728 402.628 364.394 400.711 367.134C398.794 369.873 399.46 373.648 402.2 375.566L408.125 379.712L403.978 385.637C402.061 388.377 402.727 392.152 405.467 394.069C408.206 395.986 411.981 395.32 413.899 392.58L418.045 386.656L423.97 390.802C426.709 392.719 430.484 392.053 432.402 389.313C434.319 386.574 433.653 382.799 430.913 380.882L424.988 376.735L429.135 370.81C431.052 368.071 430.386 364.296 427.646 362.378Z" fill="white"/>
<path fill-rule="evenodd" clip-rule="evenodd" d="M581.26 459.034C582.259 459.733 582.502 461.111 581.802 462.11L554.311 501.39C551.933 504.789 547.249 505.616 543.852 503.238L501.869 473.856C498.471 471.478 497.645 466.794 500.024 463.395L527.515 424.116C528.215 423.116 529.592 422.873 530.592 423.572L581.26 459.034ZM550.826 448.589C548.086 446.672 544.311 447.338 542.394 450.078L538.247 456.003L532.323 451.856C529.583 449.939 525.808 450.605 523.891 453.345C521.974 456.084 522.64 459.859 525.38 461.777L531.304 465.923L527.158 471.848C525.24 474.587 525.907 478.362 528.646 480.28C531.386 482.197 535.161 481.531 537.078 478.791L541.225 472.866L547.15 477.013C549.889 478.93 553.664 478.264 555.581 475.524C557.499 472.785 556.832 469.01 554.093 467.092L548.168 462.946L552.315 457.021C554.232 454.282 553.565 450.507 550.826 448.589Z" fill="white"/>
<path d="M-24.6486 9.08264C-22.45 10.6214 -21.9154 13.6519 -23.4547 15.8512L-29.0288 23.8157C-29.7285 24.8154 -31.1059 25.0587 -32.1053 24.3592L-82.7733 -11.1022C-83.7727 -11.8017 -84.0157 -13.1791 -83.3161 -14.1788L-77.7419 -22.1433C-76.2027 -24.3426 -73.1724 -24.8781 -70.9737 -23.3393L-24.6486 9.08264Z" fill="white"/>
<path d="M98.5311 95.2935C100.73 96.8323 101.264 99.8627 99.725 102.062L94.1509 110.027C93.4512 111.026 92.0738 111.269 91.0744 110.57L40.4064 75.1086C39.4071 74.4092 39.164 73.0317 39.8636 72.032L45.4378 64.0676C46.9771 61.8682 50.0073 61.3327 52.206 62.8715L98.5311 95.2935Z" fill="white"/>
<path d="M221.711 181.504C223.909 183.043 224.444 186.074 222.905 188.273L217.331 196.237C216.631 197.237 215.254 197.48 214.254 196.781L163.586 161.319C162.587 160.62 162.344 159.243 163.043 158.243L168.617 150.278C170.157 148.079 173.187 147.544 175.386 149.082L221.711 181.504Z" fill="white"/>
<path d="M344.89 267.715C347.089 269.254 347.624 272.284 346.084 274.484L340.51 282.448C339.811 283.448 338.433 283.691 337.434 282.992L286.766 247.53C285.766 246.831 285.523 245.453 286.223 244.454L291.797 236.489C293.336 234.29 296.367 233.754 298.565 235.293L344.89 267.715Z" fill="white"/>
<path d="M468.07 353.926C470.269 355.465 470.803 358.495 469.264 360.694L463.69 368.659C462.99 369.659 461.613 369.902 460.614 369.202L409.946 333.741C408.946 333.042 408.703 331.664 409.403 330.664L414.977 322.7C416.516 320.501 419.546 319.965 421.745 321.504L468.07 353.926Z" fill="white"/>
<path d="M591.25 440.137C593.449 441.676 593.983 444.706 592.444 446.905L586.87 454.87C586.17 455.869 584.793 456.113 583.793 455.413L533.125 419.952C532.126 419.252 531.883 417.875 532.582 416.875L538.157 408.911C539.696 406.711 542.726 406.176 544.925 407.715L591.25 440.137Z" fill="white"/>
<path fill-rule="evenodd" clip-rule="evenodd" d="M-14.6054 -131.458C-13.606 -130.758 -13.363 -129.381 -14.0627 -128.381L-41.5536 -89.1016C-43.9324 -85.7026 -48.6155 -84.8751 -52.0135 -87.2532L-93.9956 -116.636C-97.3936 -119.014 -98.2197 -123.697 -95.8408 -127.096L-68.35 -166.376C-67.6503 -167.375 -66.2728 -167.619 -65.2734 -166.919L-14.6054 -131.458ZM-45.0391 -141.902C-47.7785 -143.819 -51.5536 -143.153 -53.4709 -140.413L-57.6175 -134.489L-63.5423 -138.635C-66.2817 -140.553 -70.0568 -139.886 -71.9741 -137.147C-73.8914 -134.407 -73.2249 -130.632 -70.4854 -128.715L-64.5607 -124.568L-68.7073 -118.643C-70.6246 -115.904 -69.9581 -112.129 -67.2186 -110.212C-64.4791 -108.294 -60.704 -108.961 -58.7868 -111.7L-54.6401 -117.625L-48.7154 -113.478C-45.9759 -111.561 -42.2009 -112.228 -40.2836 -114.967C-38.3663 -117.706 -39.0328 -121.482 -41.7722 -123.399L-47.697 -127.545L-43.5504 -133.47C-41.6331 -136.21 -42.2996 -139.985 -45.0391 -141.902Z" fill="white"/>
<path fill-rule="evenodd" clip-rule="evenodd" d="M108.574 -45.247C109.574 -44.5475 109.817 -43.17 109.117 -42.1703L81.6261 -2.8908C79.2473 0.508176 74.5642 1.33576 71.1662 -1.0424L29.1841 -30.4248C25.7861 -32.803 24.96 -37.4863 27.3389 -40.8853L54.8297 -80.1647C55.5294 -81.1644 56.9069 -81.4078 57.9063 -80.7084L108.574 -45.247ZM78.1406 -55.6912C75.4012 -57.6085 71.6261 -56.942 69.7088 -54.2025L65.5622 -48.2778L59.6374 -52.4244C56.898 -54.3417 53.1229 -53.6752 51.2056 -50.9357C49.2883 -48.1962 49.9548 -44.4212 52.6943 -42.5039L58.619 -38.3573L54.4724 -32.4325C52.5551 -29.6931 53.2216 -25.918 55.9611 -24.0007C58.7006 -22.0834 62.4757 -22.7499 64.393 -25.4894L68.5396 -31.4141L74.4643 -27.2675C77.2038 -25.3502 80.9788 -26.0167 82.8961 -28.7562C84.8134 -31.4957 84.1469 -35.2707 81.4075 -37.188L75.4827 -41.3346L79.6293 -47.2594C81.5466 -49.9989 80.8801 -53.7739 78.1406 -55.6912Z" fill="white"/>
<path fill-rule="evenodd" clip-rule="evenodd" d="M231.754 40.9639C232.753 41.6633 232.996 43.0409 232.297 44.0406L204.806 83.32C202.427 86.719 197.744 87.5466 194.346 85.1684L152.364 55.786C148.966 53.4079 148.14 48.7245 150.519 45.3255L178.009 6.04608C178.709 5.04638 180.087 4.80297 181.086 5.50243L231.754 40.9639ZM201.32 30.5196C198.581 28.6023 194.806 29.2688 192.889 32.0083L188.742 37.933L182.817 33.7864C180.078 31.8691 176.303 32.5356 174.385 35.2751C172.468 38.0146 173.135 41.7896 175.874 43.7069L181.799 47.8535L177.652 53.7783C175.735 56.5178 176.401 60.2928 179.141 62.2101C181.88 64.1274 185.655 63.4609 187.573 60.7214L191.719 54.7967L197.644 58.9433C200.383 60.8606 204.159 60.1941 206.076 57.4546C207.993 54.7151 207.327 50.9401 204.587 49.0228L198.662 44.8762L202.809 38.9514C204.726 36.212 204.06 32.4369 201.32 30.5196Z" fill="white"/>
<path fill-rule="evenodd" clip-rule="evenodd" d="M354.934 127.175C355.933 127.874 356.176 129.252 355.476 130.251L327.986 169.531C325.607 172.93 320.924 173.757 317.526 171.379L275.544 141.997C272.146 139.619 271.319 134.935 273.698 131.536L301.189 92.2569C301.889 91.2572 303.266 91.0138 304.266 91.7132L354.934 127.175ZM324.5 116.73C321.761 114.813 317.986 115.48 316.068 118.219L311.922 124.144L305.997 119.997C303.257 118.08 299.482 118.746 297.565 121.486C295.648 124.225 296.314 128 299.054 129.918L304.978 134.064L300.832 139.989C298.915 142.729 299.581 146.504 302.321 148.421C305.06 150.338 308.835 149.672 310.752 146.932L314.899 141.008L320.824 145.154C323.563 147.071 327.338 146.405 329.256 143.665C331.173 140.926 330.506 137.151 327.767 135.234L321.842 131.087L325.989 125.162C327.906 122.423 327.24 118.648 324.5 116.73Z" fill="white"/>
<path fill-rule="evenodd" clip-rule="evenodd" d="M478.113 213.385C479.113 214.085 479.356 215.462 478.656 216.462L451.165 255.742C448.786 259.141 444.103 259.968 440.705 257.59L398.723 228.208C395.325 225.829 394.499 221.146 396.878 217.747L424.369 178.468C425.069 177.468 426.446 177.225 427.445 177.924L478.113 213.385ZM447.68 202.941C444.94 201.024 441.165 201.69 439.248 204.43L435.101 210.355L429.177 206.208C426.437 204.291 422.662 204.957 420.745 207.697C418.827 210.436 419.494 214.211 422.233 216.129L428.158 220.275L424.012 226.2C422.094 228.939 422.761 232.714 425.5 234.632C428.24 236.549 432.015 235.883 433.932 233.143L438.079 227.218L444.003 231.365C446.743 233.282 450.518 232.616 452.435 229.876C454.353 227.137 453.686 223.362 450.947 221.444L445.022 217.298L449.168 211.373C451.086 208.634 450.419 204.859 447.68 202.941Z" fill="white"/>
<path fill-rule="evenodd" clip-rule="evenodd" d="M601.293 299.596C602.292 300.296 602.535 301.673 601.836 302.673L574.345 341.952C571.966 345.351 567.283 346.179 563.885 343.801L521.903 314.418C518.505 312.04 517.679 307.357 520.058 303.958L547.549 264.679C548.248 263.679 549.626 263.435 550.625 264.135L601.293 299.596ZM570.859 289.152C568.12 287.235 564.345 287.901 562.428 290.641L558.281 296.565L552.356 292.419C549.617 290.502 545.842 291.168 543.924 293.908C542.007 296.647 542.674 300.422 545.413 302.339L551.338 306.486L547.191 312.411C545.274 315.15 545.94 318.925 548.68 320.843C551.419 322.76 555.194 322.093 557.112 319.354L561.258 313.429L567.183 317.576C569.923 319.493 573.698 318.827 575.615 316.087C577.532 313.348 576.866 309.573 574.126 307.655L568.202 303.509L572.348 297.584C574.265 294.844 573.599 291.069 570.859 289.152Z" fill="white"/>
<path d="M-4.61509 -150.355C-2.4164 -148.816 -1.88185 -145.785 -3.42112 -143.586L-8.99529 -135.622C-9.69496 -134.622 -11.0723 -134.379 -12.0717 -135.078L-62.7397 -170.539C-63.7391 -171.239 -63.9822 -172.616 -63.2825 -173.616L-57.7084 -181.58C-56.1691 -183.78 -53.1388 -184.315 -50.9401 -182.776L-4.61509 -150.355Z" fill="white"/>
<path d="M118.565 -64.1438C120.763 -62.605 121.298 -59.5745 119.759 -57.3752L114.184 -49.4107C113.485 -48.411 112.107 -48.1677 111.108 -48.8672L60.44 -84.3286C59.4406 -85.0281 59.1975 -86.4055 59.8972 -87.4052L65.4713 -95.3697C67.0106 -97.569 70.0409 -98.1045 72.2396 -96.5657L118.565 -64.1438Z" fill="white"/>
<path d="M241.744 22.0671C243.943 23.6059 244.478 26.6363 242.938 28.8356L237.364 36.8001C236.664 37.7998 235.287 38.0431 234.288 37.3436L183.62 1.88221C182.62 1.18276 182.377 -0.194661 183.077 -1.19436L188.651 -9.15884C190.19 -11.3582 193.221 -11.8937 195.419 -10.3549L241.744 22.0671Z" fill="white"/>
<path d="M364.924 108.278C367.123 109.817 367.657 112.847 366.118 115.046L360.544 123.011C359.844 124.011 358.467 124.254 357.467 123.554L306.799 88.093C305.8 87.3936 305.557 86.0162 306.257 85.0165L311.831 77.052C313.37 74.8526 316.4 74.3171 318.599 75.856L364.924 108.278Z" fill="white"/>
<path d="M488.104 194.489C490.302 196.027 490.837 199.058 489.298 201.257L483.724 209.222C483.024 210.221 481.646 210.465 480.647 209.765L429.979 174.304C428.98 173.604 428.737 172.227 429.436 171.227L435.01 163.263C436.55 161.063 439.58 160.528 441.779 162.067L488.104 194.489Z" fill="white"/>
<path d="M611.283 280.7C613.482 282.238 614.017 285.269 612.477 287.468L606.903 295.433C606.204 296.432 604.826 296.676 603.827 295.976L553.159 260.515C552.159 259.815 551.916 258.438 552.616 257.438L558.19 249.474C559.729 247.274 562.76 246.739 564.958 248.278L611.283 280.7Z" fill="white"/>
<path fill-rule="evenodd" clip-rule="evenodd" d="M5.4281 -290.895C6.4275 -290.196 6.6705 -288.818 5.97084 -287.818L-21.52 -248.539C-23.8989 -245.14 -28.582 -244.312 -31.9799 -246.69L-73.9621 -276.073C-77.36 -278.451 -78.1861 -283.134 -75.8073 -286.533L-48.3164 -325.813C-47.6167 -326.812 -46.2393 -327.056 -45.2399 -326.356L5.4281 -290.895ZM-25.0055 -301.339C-27.745 -303.257 -31.5201 -302.59 -33.4374 -299.851L-37.584 -293.926L-43.5087 -298.072C-46.2482 -299.99 -50.0232 -299.323 -51.9405 -296.584C-53.8578 -293.844 -53.1913 -290.069 -50.4519 -288.152L-44.5271 -284.005L-48.6737 -278.081C-50.591 -275.341 -49.9245 -271.566 -47.185 -269.649C-44.4456 -267.731 -40.6705 -268.398 -38.7532 -271.137L-34.6066 -277.062L-28.6818 -272.916C-25.9424 -270.998 -22.1673 -271.665 -20.25 -274.404C-18.3327 -277.144 -18.9992 -280.919 -21.7387 -282.836L-27.6634 -286.983L-23.5168 -292.907C-21.5995 -295.647 -22.266 -299.422 -25.0055 -301.339Z" fill="white"/>
<path fill-rule="evenodd" clip-rule="evenodd" d="M128.608 -204.684C129.607 -203.985 129.85 -202.607 129.151 -201.607L101.66 -162.328C99.2808 -158.929 94.5977 -158.101 91.1998 -160.48L49.2176 -189.862C45.8197 -192.24 44.9936 -196.924 47.3724 -200.322L74.8633 -239.602C75.563 -240.602 76.9404 -240.845 77.9398 -240.146L128.608 -204.684ZM98.1742 -215.128C95.4347 -217.046 91.6597 -216.379 89.7424 -213.64L85.5957 -207.715L79.671 -211.862C76.9315 -213.779 73.1565 -213.112 71.2392 -210.373C69.3219 -207.633 69.9884 -203.858 72.7278 -201.941L78.6526 -197.795L74.506 -191.87C72.5887 -189.13 73.2552 -185.355 75.9947 -183.438C78.7341 -181.521 82.5092 -182.187 84.4265 -184.927L88.5731 -190.851L94.4979 -186.705C97.2373 -184.787 101.012 -185.454 102.93 -188.193C104.847 -190.933 104.18 -194.708 101.441 -196.625L95.5163 -200.772L99.6629 -206.697C101.58 -209.436 100.914 -213.211 98.1742 -215.128Z" fill="white"/>
<path fill-rule="evenodd" clip-rule="evenodd" d="M251.788 -118.473C252.787 -117.774 253.03 -116.396 252.33 -115.397L224.839 -76.1172C222.461 -72.7182 217.777 -71.8906 214.379 -74.2688L172.397 -103.651C168.999 -106.029 168.173 -110.713 170.552 -114.112L198.043 -153.391C198.743 -154.391 200.12 -154.634 201.12 -153.935L251.788 -118.473ZM221.354 -128.918C218.614 -130.835 214.839 -130.168 212.922 -127.429L208.775 -121.504L202.851 -125.651C200.111 -127.568 196.336 -126.902 194.419 -124.162C192.502 -121.423 193.168 -117.648 195.908 -115.73L201.832 -111.584L197.686 -105.659C195.768 -102.919 196.435 -99.1444 199.174 -97.2271C201.914 -95.3098 205.689 -95.9763 207.606 -98.7158L211.753 -104.641L217.678 -100.494C220.417 -98.5766 224.192 -99.2431 226.109 -101.983C228.027 -104.722 227.36 -108.497 224.621 -110.414L218.696 -114.561L222.843 -120.486C224.76 -123.225 224.093 -127 221.354 -128.918Z" fill="white"/>
<path fill-rule="evenodd" clip-rule="evenodd" d="M374.967 -32.2626C375.967 -31.5631 376.21 -30.1855 375.51 -29.1859L348.019 10.0936C345.64 13.4926 340.957 14.3202 337.559 11.942L295.577 -17.4404C292.179 -19.8185 291.353 -24.5019 293.732 -27.9009L321.223 -67.1803C321.922 -68.18 323.3 -68.4234 324.299 -67.724L374.967 -32.2626ZM344.534 -42.7068C341.794 -44.6241 338.019 -43.9576 336.102 -41.2181L331.955 -35.2934L326.03 -39.44C323.291 -41.3573 319.516 -40.6908 317.599 -37.9513C315.681 -35.2118 316.348 -31.4368 319.087 -29.5195L325.012 -25.3729L320.865 -19.4481C318.948 -16.7086 319.615 -12.9336 322.354 -11.0163C325.094 -9.09898 328.869 -9.76549 330.786 -12.505L334.933 -18.4297L340.857 -14.2831C343.597 -12.3658 347.372 -13.0323 349.289 -15.7718C351.206 -18.5113 350.54 -22.2863 347.8 -24.2036L341.876 -28.3502L346.022 -34.275C347.94 -37.0145 347.273 -40.7895 344.534 -42.7068Z" fill="white"/>
<path fill-rule="evenodd" clip-rule="evenodd" d="M498.147 53.9483C499.146 54.6477 499.389 56.0253 498.69 57.025L471.199 96.3044C468.82 99.7034 464.137 100.531 460.739 98.1528L418.757 68.7704C415.359 66.3923 414.533 61.7089 416.912 58.31L444.402 19.0305C445.102 18.0308 446.48 17.7874 447.479 18.4868L498.147 53.9483ZM467.713 43.504C464.974 41.5867 461.199 42.2532 459.281 44.9927L455.135 50.9174L449.21 46.7708C446.471 44.8535 442.696 45.52 440.778 48.2595C438.861 50.999 439.527 54.774 442.267 56.6913L448.192 60.838L444.045 66.7627C442.128 69.5022 442.794 73.2772 445.534 75.1945C448.273 77.1118 452.048 76.4453 453.966 73.7059L458.112 67.7811L464.037 71.9277C466.776 73.845 470.552 73.1785 472.469 70.439C474.386 67.6996 473.72 63.9245 470.98 62.0072L465.055 57.8606L469.202 51.9358C471.119 49.1964 470.453 45.4213 467.713 43.504Z" fill="white"/>
<path fill-rule="evenodd" clip-rule="evenodd" d="M621.327 140.159C622.326 140.859 622.569 142.236 621.869 143.236L594.379 182.515C592 185.914 587.317 186.742 583.919 184.364L541.936 154.981C538.538 152.603 537.712 147.92 540.091 144.521L567.582 105.241C568.282 104.242 569.659 103.998 570.659 104.698L621.327 140.159ZM590.893 129.715C588.154 127.798 584.378 128.464 582.461 131.204L578.315 137.128L572.39 132.982C569.65 131.064 565.875 131.731 563.958 134.47C562.041 137.21 562.707 140.985 565.447 142.902L571.371 147.049L567.225 152.974C565.308 155.713 565.974 159.488 568.713 161.405C571.453 163.323 575.228 162.656 577.145 159.917L581.292 153.992L587.217 158.139C589.956 160.056 593.731 159.389 595.649 156.65C597.566 153.91 596.899 150.135 594.16 148.218L588.235 144.071L592.382 138.147C594.299 135.407 593.632 131.632 590.893 129.715Z" fill="white"/>
<path d="M15.4185 -309.792C17.6171 -308.253 18.1517 -305.223 16.6124 -303.023L11.0383 -295.059C10.3386 -294.059 8.96121 -293.816 7.96181 -294.515L-42.7062 -329.977C-43.7056 -330.676 -43.9486 -332.054 -43.249 -333.053L-37.6748 -341.018C-36.1356 -343.217 -33.1053 -343.753 -30.9066 -342.214L15.4185 -309.792Z" fill="white"/>
<path d="M138.598 -223.581C140.797 -222.042 141.331 -219.012 139.792 -216.812L134.218 -208.848C133.518 -207.848 132.141 -207.605 131.142 -208.304L80.4735 -243.766C79.4741 -244.465 79.2311 -245.843 79.9307 -246.842L85.5049 -254.807C87.0441 -257.006 90.0744 -257.542 92.2731 -256.003L138.598 -223.581Z" fill="white"/>
<path d="M261.778 -137.37C263.977 -135.831 264.511 -132.801 262.972 -130.602L257.398 -122.637C256.698 -121.637 255.321 -121.394 254.321 -122.094L203.653 -157.555C202.654 -158.254 202.411 -159.632 203.11 -160.632L208.685 -168.596C210.224 -170.795 213.254 -171.331 215.453 -169.792L261.778 -137.37Z" fill="white"/>
<path d="M384.958 -51.1594C387.156 -49.6205 387.691 -46.5901 386.152 -44.3908L380.577 -36.4263C379.878 -35.4266 378.5 -35.1833 377.501 -35.8828L326.833 -71.3442C325.834 -72.0436 325.59 -73.4211 326.29 -74.4208L331.864 -82.3852C333.404 -84.5846 336.434 -85.1201 338.633 -83.5813L384.958 -51.1594Z" fill="white"/>
<path d="M508.137 35.0515C510.336 36.5903 510.871 39.6207 509.331 41.8201L503.757 49.7845C503.057 50.7842 501.68 51.0275 500.681 50.328L450.013 14.8666C449.013 14.1672 448.77 12.7898 449.47 11.7901L455.044 3.82558C456.583 1.62624 459.614 1.09074 461.812 2.62955L508.137 35.0515Z" fill="white"/>
<path d="M631.317 121.262C633.516 122.801 634.05 125.832 632.511 128.031L626.937 135.995C626.237 136.995 624.86 137.238 623.86 136.539L573.192 101.077C572.193 100.378 571.95 99.0006 572.65 98.0009L578.224 90.0364C579.763 87.8371 582.793 87.3016 584.992 88.8404L631.317 121.262Z" fill="white"/>
</g>
<defs>
<clipPath id="clip0_630_83">
<rect width="430" height="936" fill="white"/>
</clipPath>
</defs>
</svg>
