<svg width="1024" height="1024" viewBox="0 0 1024 1024" fill="none" xmlns="http://www.w3.org/2000/svg">
<path d="M167 311.968C167 240.741 224.755 183 296 183C367.245 183 425 240.741 425 311.968V480.416C425 490.591 416.749 498.84 406.571 498.84H185.429C175.251 498.84 167 490.591 167 480.416V311.968Z" fill="white"/>
<path d="M167 712.032C167 783.259 224.755 841 296 841C367.245 841 425 783.259 425 712.032V543.584C425 533.409 416.749 525.16 406.571 525.16H185.429C175.251 525.16 167 533.409 167 543.584V712.032Z" fill="white"/>
<path d="M843.866 465.117C851.12 465.117 857 470.999 857 478.255V763.333C857 788.002 837.008 808 812.347 808H507.653C482.992 808 463 788.002 463 763.333V478.255C463 470.999 468.88 465.117 476.134 465.117H843.866Z" fill="white"/>
<path d="M828.106 339C844.064 339 857 351.94 857 367.902V425.706C857 432.961 851.12 438.843 843.866 438.843H476.134C468.881 438.843 463 432.961 463 425.706V367.902C463 351.94 475.936 339 491.894 339H828.106Z" fill="white"/>
<path d="M624 554C624 534.118 640.118 518 660 518C679.882 518 696 534.118 696 554V712C696 731.882 679.882 748 660 748C640.118 748 624 731.882 624 712V554Z" fill="#06808E"/>
<path d="M581 669C561.118 669 545 652.882 545 633C545 613.118 561.118 597 581 597H739C758.882 597 775 613.118 775 633C775 652.882 758.882 669 739 669H581Z" fill="#06808E"/>
</svg>
