<svg width="430" height="936" viewBox="0 0 430 936" fill="none" xmlns="http://www.w3.org/2000/svg">
<g clip-path="url(#clip0_628_61)">
<path d="M-119.921 797.362C-118.736 797.928 -118.232 799.347 -118.798 800.533L-128.157 820.16C-132.114 828.46 -142.052 831.979 -150.353 828.02C-158.655 824.062 -162.176 814.125 -158.219 805.826L-148.86 786.198C-148.295 785.012 -146.875 784.51 -145.689 785.075L-119.921 797.362Z" fill="white"/>
<path d="M-54.9031 828.365C-53.7172 828.93 -53.2141 830.35 -53.7794 831.536L-63.1385 851.163C-67.096 859.463 -77.0337 862.982 -85.3352 859.023C-93.6366 855.065 -97.1582 845.128 -93.2008 836.829L-83.8417 817.201C-83.2763 816.015 -81.8566 815.513 -80.6707 816.078L-54.9031 828.365Z" fill="white"/>
<path d="M10.1152 859.368C11.3011 859.933 11.8042 861.353 11.2389 862.538L1.87978 882.166C-2.07765 890.465 -12.0154 893.984 -20.3169 890.026C-28.6183 886.068 -32.1398 876.131 -28.1824 867.831L-18.8234 848.204C-18.258 847.018 -16.8383 846.515 -15.6524 847.081L10.1152 859.368Z" fill="white"/>
<path d="M75.1335 890.371C76.3194 890.936 76.8225 892.356 76.2572 893.541L66.8981 913.169C62.9407 921.468 53.0029 924.987 44.7014 921.029C36.4 917.071 32.8785 907.134 36.8359 898.834L46.195 879.207C46.7603 878.021 48.18 877.518 49.3659 878.084L75.1335 890.371Z" fill="white"/>
<path d="M140.152 921.373C141.338 921.939 141.841 923.358 141.275 924.544L131.916 944.172C127.959 952.471 118.021 955.99 109.72 952.032C101.418 948.073 97.8968 938.136 101.854 929.837L111.213 910.209C111.779 909.024 113.198 908.521 114.384 909.087L140.152 921.373Z" fill="white"/>
<path d="M205.17 952.376C206.356 952.942 206.859 954.361 206.294 955.547L196.935 975.175C192.977 983.474 183.04 986.993 174.738 983.035C166.437 979.076 162.915 969.139 166.872 960.84L176.232 941.212C176.797 940.027 178.217 939.524 179.403 940.089L205.17 952.376Z" fill="white"/>
<path d="M270.188 983.379C271.374 983.945 271.877 985.364 271.312 986.55L261.953 1006.18C257.996 1014.48 248.058 1018 239.756 1014.04C231.455 1010.08 227.933 1000.14 231.891 991.843L241.25 972.215C241.815 971.029 243.235 970.527 244.421 971.092L270.188 983.379Z" fill="white"/>
<path d="M335.207 1014.38C336.393 1014.95 336.896 1016.37 336.33 1017.55L326.971 1037.18C323.014 1045.48 313.076 1049 304.775 1045.04C296.473 1041.08 292.952 1031.14 296.909 1022.85L306.268 1003.22C306.834 1002.03 308.253 1001.53 309.439 1002.1L335.207 1014.38Z" fill="white"/>
<path d="M400.225 1045.38C401.411 1045.95 401.914 1047.37 401.349 1048.56L391.99 1068.18C388.032 1076.48 378.094 1080 369.793 1076.04C361.492 1072.08 357.97 1062.15 361.927 1053.85L371.286 1034.22C371.852 1033.04 373.272 1032.53 374.457 1033.1L400.225 1045.38Z" fill="white"/>
<path d="M-113.795 751.35C-105.493 755.308 -101.972 765.245 -105.929 773.545L-115.288 793.172C-115.853 794.358 -117.273 794.861 -118.459 794.295L-144.227 782.008C-145.413 781.443 -145.916 780.023 -145.35 778.838L-135.991 759.21C-132.034 750.911 -122.096 747.392 -113.795 751.35Z" fill="white"/>
<path d="M-48.7763 782.353C-40.4748 786.311 -36.9533 796.248 -40.9107 804.548L-50.2698 824.175C-50.8351 825.361 -52.2548 825.864 -53.4407 825.298L-79.2083 813.011C-80.3943 812.446 -80.8974 811.026 -80.332 809.841L-70.9729 790.213C-67.0155 781.914 -57.0777 778.395 -48.7763 782.353Z" fill="white"/>
<path d="M16.242 813.356C24.5435 817.314 28.065 827.251 24.1076 835.55L14.7485 855.178C14.1832 856.364 12.7635 856.866 11.5776 856.301L-14.19 844.014C-15.3759 843.449 -15.879 842.029 -15.3137 840.843L-5.95461 821.216C-1.99718 812.916 7.94059 809.397 16.242 813.356Z" fill="white"/>
<path d="M81.2603 844.359C89.5618 848.317 93.0833 858.254 89.1259 866.553L79.7668 886.181C79.2015 887.367 77.7818 887.869 76.5959 887.304L50.8283 875.017C49.6424 874.451 49.1393 873.032 49.7046 871.846L59.0637 852.219C63.0211 843.919 72.9589 840.4 81.2603 844.359Z" fill="white"/>
<path d="M146.279 875.361C154.58 879.32 158.102 889.257 154.144 897.556L144.785 917.184C144.22 918.369 142.8 918.872 141.614 918.307L115.847 906.02C114.661 905.454 114.158 904.035 114.723 902.849L124.082 883.221C128.039 874.922 137.977 871.403 146.279 875.361Z" fill="white"/>
<path d="M211.297 906.364C219.598 910.323 223.12 920.26 219.163 928.559L209.803 948.187C209.238 949.372 207.818 949.875 206.632 949.309L180.865 937.023C179.679 936.457 179.176 935.038 179.741 933.852L189.1 914.224C193.058 905.925 202.996 902.406 211.297 906.364Z" fill="white"/>
<path d="M276.315 937.367C284.617 941.325 288.138 951.262 284.181 959.562L274.822 979.189C274.256 980.375 272.837 980.878 271.651 980.312L245.883 968.025C244.697 967.46 244.194 966.04 244.76 964.855L254.119 945.227C258.076 936.928 268.014 933.409 276.315 937.367Z" fill="white"/>
<path d="M341.334 968.37C349.635 972.328 353.157 982.265 349.199 990.565L339.84 1010.19C339.275 1011.38 337.855 1011.88 336.669 1011.32L310.902 999.028C309.716 998.463 309.212 997.043 309.778 995.858L319.137 976.23C323.094 967.931 333.032 964.412 341.334 968.37Z" fill="white"/>
<path d="M406.352 999.373C414.653 1003.33 418.175 1013.27 414.217 1021.57L404.858 1041.2C404.293 1042.38 402.873 1042.88 401.687 1042.32L375.92 1030.03C374.734 1029.47 374.231 1028.05 374.796 1026.86L384.155 1007.23C388.113 998.933 398.05 995.414 406.352 999.373Z" fill="white"/>
<path d="M-103.772 682.214C-102.586 682.78 -102.083 684.199 -102.648 685.385L-112.007 705.013C-115.965 713.312 -125.902 716.831 -134.204 712.873C-142.505 708.914 -146.027 698.977 -142.069 690.678L-132.71 671.05C-132.145 669.865 -130.725 669.362 -129.539 669.927L-103.772 682.214Z" fill="white"/>
<path d="M-38.7535 713.217C-37.5676 713.783 -37.0645 715.202 -37.6298 716.388L-46.9889 736.015C-50.9464 744.315 -60.8841 747.834 -69.1856 743.875C-77.487 739.917 -81.0086 729.98 -77.0512 721.681L-67.6921 702.053C-67.1267 700.867 -65.707 700.365 -64.5211 700.93L-38.7535 713.217Z" fill="white"/>
<path d="M26.2648 744.22C27.4507 744.785 27.9538 746.205 27.3885 747.391L18.0294 767.018C14.0719 775.318 4.13418 778.837 -4.16727 774.878C-12.4687 770.92 -15.9903 760.983 -12.0329 752.684L-2.67376 733.056C-2.10841 731.87 -0.688722 731.368 0.4972 731.933L26.2648 744.22Z" fill="white"/>
<path d="M91.2831 775.223C92.469 775.788 92.9721 777.208 92.4068 778.393L83.0477 798.021C79.0903 806.32 69.1525 809.839 60.851 805.881C52.5496 801.923 49.0281 791.986 52.9855 783.686L62.3446 764.059C62.9099 762.873 64.3296 762.37 65.5155 762.936L91.2831 775.223Z" fill="white"/>
<path d="M156.301 806.226C157.487 806.791 157.99 808.211 157.425 809.396L148.066 829.024C144.109 837.323 134.171 840.842 125.869 836.884C117.568 832.926 114.046 822.989 118.004 814.689L127.363 795.062C127.928 793.876 129.348 793.373 130.534 793.939L156.301 806.226Z" fill="white"/>
<path d="M221.32 837.228C222.506 837.794 223.009 839.213 222.443 840.399L213.084 860.027C209.127 868.326 199.189 871.845 190.888 867.887C182.586 863.928 179.065 853.991 183.022 845.692L192.381 826.064C192.947 824.879 194.366 824.376 195.552 824.942L221.32 837.228Z" fill="white"/>
<path d="M286.338 868.231C287.524 868.797 288.027 870.216 287.462 871.402L278.103 891.03C274.145 899.329 264.207 902.848 255.906 898.89C247.605 894.931 244.083 884.994 248.04 876.695L257.399 857.067C257.965 855.882 259.385 855.379 260.57 855.944L286.338 868.231Z" fill="white"/>
<path d="M351.356 899.234C352.542 899.8 353.045 901.219 352.48 902.405L343.121 922.032C339.163 930.332 329.226 933.851 320.924 929.892C312.623 925.934 309.101 915.997 313.059 907.698L322.418 888.07C322.983 886.884 324.403 886.382 325.589 886.947L351.356 899.234Z" fill="white"/>
<path d="M416.375 930.237C417.561 930.802 418.064 932.222 417.498 933.408L408.139 953.035C404.182 961.335 394.244 964.854 385.943 960.895C377.641 956.937 374.12 947 378.077 938.701L387.436 919.073C388.001 917.887 389.421 917.385 390.607 917.95L416.375 930.237Z" fill="white"/>
<path d="M-97.645 636.202C-89.3435 640.161 -85.822 650.098 -89.7794 658.397L-99.1385 678.025C-99.7038 679.21 -101.124 679.713 -102.309 679.147L-128.077 666.861C-129.263 666.295 -129.766 664.876 -129.201 663.69L-119.842 644.062C-115.884 635.763 -105.946 632.244 -97.645 636.202Z" fill="white"/>
<path d="M-32.6267 667.205C-24.3252 671.163 -20.8037 681.1 -24.7611 689.4L-34.1202 709.027C-34.6855 710.213 -36.1052 710.716 -37.2911 710.15L-63.0587 697.863C-64.2447 697.298 -64.7478 695.878 -64.1824 694.693L-54.8233 675.065C-50.8659 666.766 -40.9281 663.247 -32.6267 667.205Z" fill="white"/>
<path d="M32.3916 698.208C40.6931 702.166 44.2146 712.103 40.2572 720.403L30.8981 740.03C30.3328 741.216 28.9131 741.719 27.7272 741.153L1.95957 728.866C0.773652 728.301 0.27055 726.881 0.835895 725.696L10.195 706.068C14.1524 697.769 24.0902 694.249 32.3916 698.208Z" fill="white"/>
<path d="M97.4099 729.211C105.711 733.169 109.233 743.106 105.276 751.405L95.9164 771.033C95.3511 772.219 93.9314 772.721 92.7455 772.156L66.9779 759.869C65.792 759.304 65.2889 757.884 65.8542 756.698L75.2133 737.071C79.1707 728.771 89.1085 725.252 97.4099 729.211Z" fill="white"/>
<path d="M162.428 760.214C170.73 764.172 174.251 774.109 170.294 782.408L160.935 802.036C160.369 803.222 158.95 803.724 157.764 803.159L131.996 790.872C130.81 790.306 130.307 788.887 130.873 787.701L140.232 768.074C144.189 759.774 154.127 756.255 162.428 760.214Z" fill="white"/>
<path d="M227.447 791.216C235.748 795.175 239.27 805.112 235.312 813.411L225.953 833.039C225.388 834.224 223.968 834.727 222.782 834.162L197.014 821.875C195.829 821.309 195.325 819.89 195.891 818.704L205.25 799.076C209.207 790.777 219.145 787.258 227.447 791.216Z" fill="white"/>
<path d="M292.465 822.219C300.766 826.178 304.288 836.115 300.33 844.414L290.971 864.042C290.406 865.227 288.986 865.73 287.8 865.164L262.033 852.878C260.847 852.312 260.344 850.893 260.909 849.707L270.268 830.079C274.226 821.78 284.163 818.261 292.465 822.219Z" fill="white"/>
<path d="M357.483 853.222C365.785 857.18 369.306 867.117 365.349 875.417L355.99 895.044C355.424 896.23 354.005 896.733 352.819 896.167L327.051 883.88C325.865 883.315 325.362 881.895 325.927 880.71L335.287 861.082C339.244 852.783 349.182 849.264 357.483 853.222Z" fill="white"/>
<path d="M422.501 884.225C430.803 888.183 434.324 898.12 430.367 906.42L421.008 926.047C420.443 927.233 419.023 927.736 417.837 927.17L392.069 914.883C390.884 914.318 390.38 912.898 390.946 911.713L400.305 892.085C404.262 883.786 414.2 880.267 422.501 884.225Z" fill="white"/>
<path d="M-87.6222 567.066C-86.4363 567.632 -85.9332 569.051 -86.4985 570.237L-95.8576 589.865C-99.8151 598.164 -109.753 601.683 -118.054 597.725C-126.356 593.766 -129.877 583.829 -125.92 575.53L-116.561 555.902C-115.995 554.717 -114.576 554.214 -113.39 554.78L-87.6222 567.066Z" fill="white"/>
<path d="M-22.6039 598.069C-21.418 598.635 -20.9149 600.054 -21.4802 601.24L-30.8393 620.868C-34.7968 629.167 -44.7345 632.686 -53.036 628.728C-61.3374 624.769 -64.859 614.832 -60.9016 606.533L-51.5425 586.905C-50.9771 585.72 -49.5574 585.217 -48.3715 585.782L-22.6039 598.069Z" fill="white"/>
<path d="M42.4144 629.072C43.6003 629.638 44.1034 631.057 43.5381 632.243L34.179 651.87C30.2215 660.17 20.2838 663.689 11.9823 659.73C3.68088 655.772 0.159348 645.835 4.11675 637.536L13.4758 617.908C14.0412 616.722 15.4609 616.22 16.6468 616.785L42.4144 629.072Z" fill="white"/>
<path d="M107.433 660.075C108.619 660.64 109.122 662.06 108.556 663.246L99.1973 682.873C95.2399 691.173 85.3021 694.692 77.0006 690.733C68.6992 686.775 65.1777 676.838 69.1351 668.539L78.4941 648.911C79.0595 647.725 80.4792 647.223 81.6651 647.788L107.433 660.075Z" fill="white"/>
<path d="M172.451 691.078C173.637 691.643 174.14 693.063 173.575 694.248L164.216 713.876C160.258 722.175 150.32 725.694 142.019 721.736C133.718 717.778 130.196 707.841 134.153 699.541L143.512 679.914C144.078 678.728 145.497 678.225 146.683 678.791L172.451 691.078Z" fill="white"/>
<path d="M237.469 722.081C238.655 722.646 239.158 724.066 238.593 725.251L229.234 744.879C225.276 753.178 215.339 756.697 207.037 752.739C198.736 748.781 195.214 738.844 199.172 730.544L208.531 710.917C209.096 709.731 210.516 709.228 211.702 709.794L237.469 722.081Z" fill="white"/>
<path d="M302.488 753.083C303.674 753.649 304.177 755.068 303.611 756.254L294.252 775.882C290.295 784.181 280.357 787.7 272.056 783.742C263.754 779.783 260.233 769.846 264.19 761.547L273.549 741.919C274.114 740.734 275.534 740.231 276.72 740.797L302.488 753.083Z" fill="white"/>
<path d="M367.506 784.086C368.692 784.652 369.195 786.071 368.63 787.257L359.271 806.885C355.313 815.184 345.375 818.703 337.074 814.745C328.772 810.786 325.251 800.849 329.208 792.55L338.567 772.922C339.133 771.737 340.552 771.234 341.738 771.799L367.506 784.086Z" fill="white"/>
<path d="M432.524 815.089C433.71 815.655 434.213 817.074 433.648 818.26L424.289 837.887C420.331 846.187 410.394 849.706 402.092 845.747C393.791 841.789 390.269 831.852 394.227 823.553L403.586 803.925C404.151 802.739 405.571 802.237 406.757 802.802L432.524 815.089Z" fill="white"/>
<path d="M-81.4954 521.054C-73.1939 525.013 -69.6724 534.95 -73.6298 543.249L-82.9889 562.877C-83.5542 564.062 -84.9739 564.565 -86.1599 564L-111.927 551.713C-113.113 551.147 -113.616 549.728 -113.051 548.542L-103.692 528.914C-99.7346 520.615 -89.7968 517.096 -81.4954 521.054Z" fill="white"/>
<path d="M-16.4771 552.057C-8.17563 556.016 -4.65409 565.953 -8.61149 574.252L-17.9706 593.88C-18.5359 595.065 -19.9556 595.568 -21.1415 595.002L-46.9091 582.716C-48.0951 582.15 -48.5982 580.731 -48.0328 579.545L-38.6737 559.917C-34.7163 551.618 -24.7785 548.099 -16.4771 552.057Z" fill="white"/>
<path d="M48.5412 583.06C56.8427 587.018 60.3642 596.955 56.4068 605.255L47.0477 624.882C46.4824 626.068 45.0627 626.571 43.8768 626.005L18.1092 613.718C16.9233 613.153 16.4201 611.733 16.9855 610.548L26.3446 590.92C30.302 582.621 40.2398 579.102 48.5412 583.06Z" fill="white"/>
<path d="M113.56 614.063C121.861 618.021 125.383 627.958 121.425 636.258L112.066 655.885C111.501 657.071 110.081 657.574 108.895 657.008L83.1275 644.721C81.9416 644.156 81.4385 642.736 82.0038 641.551L91.3629 621.923C95.3203 613.624 105.258 610.104 113.56 614.063Z" fill="white"/>
<path d="M178.578 645.066C186.879 649.024 190.401 658.961 186.443 667.26L177.084 686.888C176.519 688.074 175.099 688.576 173.913 688.011L148.146 675.724C146.96 675.159 146.457 673.739 147.022 672.553L156.381 652.926C160.339 644.626 170.276 641.107 178.578 645.066Z" fill="white"/>
<path d="M243.596 676.069C251.898 680.027 255.419 689.964 251.462 698.263L242.103 717.891C241.537 719.077 240.118 719.579 238.932 719.014L213.164 706.727C211.978 706.161 211.475 704.742 212.04 703.556L221.4 683.929C225.357 675.629 235.295 672.11 243.596 676.069Z" fill="white"/>
<path d="M308.614 707.071C316.916 711.03 320.437 720.967 316.48 729.266L307.121 748.894C306.556 750.079 305.136 750.582 303.95 750.017L278.182 737.73C276.996 737.164 276.493 735.745 277.059 734.559L286.418 714.931C290.375 706.632 300.313 703.113 308.614 707.071Z" fill="white"/>
<path d="M373.633 738.074C381.934 742.033 385.456 751.97 381.498 760.269L372.139 779.897C371.574 781.082 370.154 781.585 368.968 781.019L343.201 768.733C342.015 768.167 341.512 766.748 342.077 765.562L351.436 745.934C355.394 737.635 365.331 734.116 373.633 738.074Z" fill="white"/>
<path d="M438.651 769.077C446.953 773.035 450.474 782.972 446.517 791.272L437.158 810.899C436.592 812.085 435.173 812.588 433.987 812.022L408.219 799.735C407.033 799.17 406.53 797.75 407.095 796.565L416.454 776.937C420.412 768.638 430.35 765.119 438.651 769.077Z" fill="white"/>
<path d="M-71.4726 451.919C-70.2867 452.484 -69.7836 453.904 -70.3489 455.089L-79.708 474.717C-83.6655 483.016 -93.6032 486.535 -101.905 482.577C-110.206 478.618 -113.728 468.682 -109.77 460.382L-100.411 440.755C-99.8458 439.569 -98.4261 439.066 -97.2402 439.632L-71.4726 451.919Z" fill="white"/>
<path d="M-6.45432 482.921C-5.2684 483.487 -4.7653 484.906 -5.33064 486.092L-14.6897 505.72C-18.6472 514.019 -28.5849 517.538 -36.8864 513.58C-45.1878 509.621 -48.7094 499.684 -44.752 491.385L-35.3929 471.757C-34.8275 470.572 -33.4078 470.069 -32.2219 470.635L-6.45432 482.921Z" fill="white"/>
<path d="M58.564 513.924C59.7499 514.49 60.253 515.909 59.6877 517.095L50.3286 536.723C46.3711 545.022 36.4334 548.541 28.1319 544.583C19.8305 540.624 16.3089 530.687 20.2663 522.388L29.6254 502.76C30.1908 501.575 31.6105 501.072 32.7964 501.637L58.564 513.924Z" fill="white"/>
<path d="M123.582 544.927C124.768 545.493 125.271 546.912 124.706 548.098L115.347 567.725C111.389 576.025 101.452 579.544 93.1502 575.585C84.8488 571.627 81.3273 561.69 85.2847 553.391L94.6437 533.763C95.2091 532.577 96.6288 532.075 97.8147 532.64L123.582 544.927Z" fill="white"/>
<path d="M188.601 575.93C189.787 576.495 190.29 577.915 189.724 579.101L180.365 598.728C176.408 607.028 166.47 610.547 158.169 606.588C149.867 602.63 146.346 592.693 150.303 584.394L159.662 564.766C160.227 563.58 161.647 563.078 162.833 563.643L188.601 575.93Z" fill="white"/>
<path d="M253.619 606.933C254.805 607.498 255.308 608.918 254.743 610.103L245.384 629.731C241.426 638.03 231.488 641.549 223.187 637.591C214.885 633.633 211.364 623.696 215.321 615.396L224.68 595.769C225.246 594.583 226.665 594.08 227.851 594.646L253.619 606.933Z" fill="white"/>
<path d="M318.637 637.936C319.823 638.501 320.326 639.921 319.761 641.106L310.402 660.734C306.444 669.033 296.507 672.552 288.205 668.594C279.904 664.635 276.382 654.699 280.34 646.399L289.699 626.772C290.264 625.586 291.684 625.083 292.87 625.649L318.637 637.936Z" fill="white"/>
<path d="M383.656 668.938C384.841 669.504 385.345 670.923 384.779 672.109L375.42 691.737C371.463 700.036 361.525 703.555 353.223 699.597C344.922 695.638 341.4 685.701 345.358 677.402L354.717 657.774C355.282 656.589 356.702 656.086 357.888 656.652L383.656 668.938Z" fill="white"/>
<path d="M448.674 699.941C449.86 700.507 450.363 701.926 449.798 703.112L440.438 722.74C436.481 731.039 426.543 734.558 418.242 730.6C409.94 726.641 406.419 716.704 410.376 708.405L419.735 688.777C420.301 687.592 421.72 687.089 422.906 687.654L448.674 699.941Z" fill="white"/>
<path d="M-65.3458 405.907C-57.0443 409.865 -53.5228 419.802 -57.4802 428.101L-66.8393 447.729C-67.4046 448.914 -68.8243 449.417 -70.0103 448.852L-95.7778 436.565C-96.9638 435.999 -97.4669 434.58 -96.9015 433.394L-87.5424 413.767C-83.585 405.467 -73.6472 401.948 -65.3458 405.907Z" fill="white"/>
<path d="M-0.327477 436.909C7.97397 440.868 11.4955 450.805 7.5381 459.104L-1.82099 478.732C-2.38633 479.917 -3.80602 480.42 -4.99195 479.855L-30.7595 467.568C-31.9455 467.002 -32.4486 465.583 -31.8832 464.397L-22.5241 444.769C-18.5667 436.47 -8.62892 432.951 -0.327477 436.909Z" fill="white"/>
<path d="M64.6908 467.912C72.9923 471.871 76.5138 481.808 72.5564 490.107L63.1973 509.735C62.632 510.92 61.2123 511.423 60.0264 510.857L34.2588 498.571C33.0728 498.005 32.5697 496.586 33.1351 495.4L42.4942 475.772C46.4516 467.473 56.3894 463.954 64.6908 467.912Z" fill="white"/>
<path d="M129.709 498.915C138.011 502.873 141.532 512.81 137.575 521.11L128.216 540.737C127.65 541.923 126.231 542.426 125.045 541.86L99.2771 529.573C98.0912 529.008 97.5881 527.588 98.1534 526.403L107.512 506.775C111.47 498.476 121.408 494.957 129.709 498.915Z" fill="white"/>
<path d="M194.727 529.918C203.029 533.876 206.55 543.813 202.593 552.113L193.234 571.74C192.669 572.926 191.249 573.429 190.063 572.863L164.295 560.576C163.109 560.011 162.606 558.591 163.172 557.406L172.531 537.778C176.488 529.479 186.426 525.959 194.727 529.918Z" fill="white"/>
<path d="M259.746 560.921C268.047 564.879 271.569 574.816 267.611 583.115L258.252 602.743C257.687 603.929 256.267 604.431 255.081 603.866L229.314 591.579C228.128 591.014 227.625 589.594 228.19 588.408L237.549 568.781C241.507 560.481 251.444 556.962 259.746 560.921Z" fill="white"/>
<path d="M324.764 591.924C333.066 595.882 336.587 605.819 332.63 614.118L323.271 633.746C322.705 634.932 321.286 635.434 320.1 634.869L294.332 622.582C293.146 622.016 292.643 620.597 293.208 619.411L302.567 599.784C306.525 591.484 316.463 587.965 324.764 591.924Z" fill="white"/>
<path d="M389.782 622.926C398.084 626.885 401.605 636.822 397.648 645.121L388.289 664.749C387.724 665.934 386.304 666.437 385.118 665.872L359.35 653.585C358.164 653.019 357.661 651.6 358.227 650.414L367.586 630.786C371.543 622.487 381.481 618.968 389.782 622.926Z" fill="white"/>
<path d="M454.801 653.929C463.102 657.888 466.624 667.825 462.666 676.124L453.307 695.752C452.742 696.937 451.322 697.44 450.136 696.874L424.369 684.588C423.183 684.022 422.68 682.603 423.245 681.417L432.604 661.789C436.561 653.49 446.499 649.971 454.801 653.929Z" fill="white"/>
<path d="M-55.323 336.771C-54.1371 337.336 -53.634 338.756 -54.1994 339.941L-63.5584 359.569C-67.5159 367.868 -77.4536 371.387 -85.7551 367.429C-94.0565 363.471 -97.5781 353.534 -93.6207 345.234L-84.2616 325.607C-83.6962 324.421 -82.2765 323.918 -81.0906 324.484L-55.323 336.771Z" fill="white"/>
<path d="M9.69528 367.774C10.8812 368.339 11.3843 369.759 10.819 370.944L1.45987 390.572C-2.49756 398.871 -12.4353 402.39 -20.7368 398.432C-29.0382 394.473 -32.5598 384.537 -28.6024 376.237L-19.2433 356.61C-18.6779 355.424 -17.2582 354.921 -16.0723 355.487L9.69528 367.774Z" fill="white"/>
<path d="M74.7136 398.776C75.8995 399.342 76.4026 400.761 75.8373 401.947L66.4782 421.575C62.5207 429.874 52.583 433.393 44.2815 429.435C35.9801 425.476 32.4585 415.539 36.4159 407.24L45.775 387.612C46.3404 386.427 47.7601 385.924 48.946 386.49L74.7136 398.776Z" fill="white"/>
<path d="M139.732 429.779C140.918 430.345 141.421 431.764 140.856 432.95L131.496 452.578C127.539 460.877 117.601 464.396 109.3 460.438C100.998 456.479 97.4769 446.542 101.434 438.243L110.793 418.615C111.359 417.43 112.778 416.927 113.964 417.492L139.732 429.779Z" fill="white"/>
<path d="M204.75 460.782C205.936 461.348 206.439 462.767 205.874 463.953L196.515 483.58C192.557 491.88 182.62 495.399 174.318 491.44C166.017 487.482 162.495 477.545 166.453 469.246L175.812 449.618C176.377 448.432 177.797 447.93 178.983 448.495L204.75 460.782Z" fill="white"/>
<path d="M269.769 491.785C270.954 492.35 271.458 493.77 270.892 494.956L261.533 514.583C257.576 522.883 247.638 526.402 239.336 522.443C231.035 518.485 227.513 508.548 231.471 500.249L240.83 480.621C241.395 479.435 242.815 478.933 244.001 479.498L269.769 491.785Z" fill="white"/>
<path d="M334.787 522.788C335.973 523.353 336.476 524.773 335.911 525.958L326.551 545.586C322.594 553.885 312.656 557.404 304.355 553.446C296.053 549.488 292.532 539.551 296.489 531.251L305.848 511.624C306.414 510.438 307.833 509.935 309.019 510.501L334.787 522.788Z" fill="white"/>
<path d="M399.805 553.791C400.991 554.356 401.494 555.776 400.929 556.961L391.57 576.589C387.612 584.888 377.675 588.407 369.373 584.449C361.072 580.49 357.55 570.554 361.507 562.254L370.867 542.627C371.432 541.441 372.852 540.938 374.038 541.504L399.805 553.791Z" fill="white"/>
<path d="M464.823 584.793C466.009 585.359 466.512 586.778 465.947 587.964L456.588 607.592C452.631 615.891 442.693 619.41 434.391 615.452C426.09 611.493 422.568 601.556 426.526 593.257L435.885 573.629C436.45 572.444 437.87 571.941 439.056 572.507L464.823 584.793Z" fill="white"/>
<path d="M-49.1962 290.759C-40.8947 294.717 -37.3732 304.654 -41.3306 312.953L-50.6897 332.581C-51.255 333.767 -52.6747 334.269 -53.8607 333.704L-79.6282 321.417C-80.8142 320.852 -81.3173 319.432 -80.7519 318.246L-71.3928 298.619C-67.4354 290.319 -57.4976 286.8 -49.1962 290.759Z" fill="white"/>
<path d="M15.8221 321.762C24.1236 325.72 27.6451 335.657 23.6877 343.956L14.3286 363.584C13.7633 364.769 12.3436 365.272 11.1577 364.707L-14.6099 352.42C-15.7959 351.854 -16.299 350.435 -15.7336 349.249L-6.37453 329.622C-2.4171 321.322 7.52068 317.803 15.8221 321.762Z" fill="white"/>
<path d="M80.8404 352.764C89.1419 356.723 92.6634 366.66 88.706 374.959L79.3469 394.587C78.7816 395.772 77.3619 396.275 76.176 395.71L50.4084 383.423C49.2224 382.857 48.7193 381.438 49.2847 380.252L58.6438 360.624C62.6012 352.325 72.539 348.806 80.8404 352.764Z" fill="white"/>
<path d="M145.859 383.767C154.16 387.726 157.682 397.662 153.724 405.962L144.365 425.59C143.8 426.775 142.38 427.278 141.194 426.712L115.427 414.426C114.241 413.86 113.738 412.441 114.303 411.255L123.662 391.627C127.62 383.328 137.557 379.809 145.859 383.767Z" fill="white"/>
<path d="M210.877 414.77C219.178 418.728 222.7 428.665 218.743 436.965L209.384 456.592C208.818 457.778 207.398 458.281 206.213 457.715L180.445 445.428C179.259 444.863 178.756 443.443 179.321 442.258L188.68 422.63C192.638 414.331 202.576 410.812 210.877 414.77Z" fill="white"/>
<path d="M275.895 445.773C284.197 449.731 287.718 459.668 283.761 467.968L274.402 487.595C273.836 488.781 272.417 489.284 271.231 488.718L245.463 476.431C244.277 475.866 243.774 474.446 244.34 473.261L253.699 453.633C257.656 445.334 267.594 441.814 275.895 445.773Z" fill="white"/>
<path d="M340.914 476.776C349.215 480.734 352.737 490.671 348.779 498.97L339.42 518.598C338.855 519.784 337.435 520.286 336.249 519.721L310.482 507.434C309.296 506.869 308.793 505.449 309.358 504.263L318.717 484.636C322.674 476.336 332.612 472.817 340.914 476.776Z" fill="white"/>
<path d="M405.932 507.779C414.233 511.737 417.755 521.674 413.798 529.973L404.438 549.601C403.873 550.786 402.453 551.289 401.268 550.724L375.5 538.437C374.314 537.871 373.811 536.452 374.376 535.266L383.735 515.639C387.693 507.339 397.631 503.82 405.932 507.779Z" fill="white"/>
<path d="M470.95 538.781C479.252 542.74 482.773 552.677 478.816 560.976L469.457 580.604C468.891 581.789 467.472 582.292 466.286 581.727L440.518 569.44C439.332 568.874 438.829 567.455 439.395 566.269L448.754 546.641C452.711 538.342 462.649 534.823 470.95 538.781Z" fill="white"/>
<path d="M-39.1734 221.623C-37.9875 222.188 -37.4844 223.608 -38.0498 224.794L-47.4088 244.421C-51.3663 252.721 -61.304 256.24 -69.6055 252.281C-77.9069 248.323 -81.4285 238.386 -77.4711 230.087L-68.112 210.459C-67.5466 209.273 -66.1269 208.771 -64.941 209.336L-39.1734 221.623Z" fill="white"/>
<path d="M25.8449 252.626C27.0308 253.191 27.5339 254.611 26.9686 255.796L17.6095 275.424C13.652 283.723 3.71426 287.242 -4.58718 283.284C-12.8886 279.326 -16.4102 269.389 -12.4528 261.089L-3.09367 241.462C-2.52833 240.276 -1.10864 239.773 0.0772864 240.339L25.8449 252.626Z" fill="white"/>
<path d="M90.8632 283.629C92.0491 284.194 92.5522 285.614 91.9869 286.799L82.6278 306.427C78.6703 314.726 68.7326 318.245 60.4311 314.287C52.1297 310.328 48.6081 300.392 52.5655 292.092L61.9246 272.465C62.49 271.279 63.9097 270.776 65.0956 271.342L90.8632 283.629Z" fill="white"/>
<path d="M155.881 314.631C157.067 315.197 157.571 316.616 157.005 317.802L147.646 337.43C143.689 345.729 133.751 349.248 125.449 345.29C117.148 341.331 113.626 331.394 117.584 323.095L126.943 303.467C127.508 302.282 128.928 301.779 130.114 302.345L155.881 314.631Z" fill="white"/>
<path d="M220.9 345.634C222.086 346.2 222.589 347.619 222.023 348.805L212.664 368.432C208.707 376.732 198.769 380.251 190.468 376.293C182.166 372.334 178.645 362.397 182.602 354.098L191.961 334.47C192.527 333.285 193.946 332.782 195.132 333.347L220.9 345.634Z" fill="white"/>
<path d="M285.918 376.637C287.104 377.203 287.607 378.622 287.042 379.808L277.683 399.435C273.725 407.735 263.787 411.254 255.486 407.295C247.185 403.337 243.663 393.4 247.62 385.101L256.98 365.473C257.545 364.287 258.965 363.785 260.151 364.35L285.918 376.637Z" fill="white"/>
<path d="M350.936 407.64C352.122 408.205 352.625 409.625 352.06 410.811L342.701 430.438C338.744 438.738 328.806 442.257 320.504 438.298C312.203 434.34 308.681 424.403 312.639 416.104L321.998 396.476C322.563 395.29 323.983 394.788 325.169 395.353L350.936 407.64Z" fill="white"/>
<path d="M415.955 438.643C417.141 439.208 417.644 440.628 417.078 441.813L407.719 461.441C403.762 469.74 393.824 473.259 385.523 469.301C377.221 465.343 373.7 455.406 377.657 447.106L387.016 427.479C387.582 426.293 389.001 425.79 390.187 426.356L415.955 438.643Z" fill="white"/>
<path d="M480.973 469.646C482.159 470.211 482.662 471.631 482.097 472.816L472.738 492.444C468.78 500.743 458.842 504.262 450.541 500.304C442.24 496.345 438.718 486.409 442.675 478.109L452.034 458.482C452.6 457.296 454.02 456.793 455.205 457.359L480.973 469.646Z" fill="white"/>
<path d="M-33.0466 175.611C-24.7451 179.569 -21.2236 189.506 -25.181 197.806L-34.5401 217.433C-35.1054 218.619 -36.5251 219.121 -37.7111 218.556L-63.4786 206.269C-64.6646 205.704 -65.1677 204.284 -64.6023 203.099L-55.2432 183.471C-51.2858 175.172 -41.348 171.652 -33.0466 175.611Z" fill="white"/>
<path d="M31.9717 206.614C40.2732 210.572 43.7947 220.509 39.8373 228.808L30.4782 248.436C29.9129 249.622 28.4932 250.124 27.3073 249.559L1.53966 237.272C0.353739 236.707 -0.149363 235.287 0.415981 234.101L9.77507 214.474C13.7325 206.174 23.6703 202.655 31.9717 206.614Z" fill="white"/>
<path d="M96.99 237.617C105.291 241.575 108.813 251.512 104.856 259.811L95.4965 279.439C94.9312 280.624 93.5115 281.127 92.3256 280.562L66.558 268.275C65.372 267.709 64.8689 266.29 65.4343 265.104L74.7934 245.477C78.7508 237.177 88.6886 233.658 96.99 237.617Z" fill="white"/>
<path d="M162.008 268.619C170.31 272.578 173.831 282.515 169.874 290.814L160.515 310.442C159.949 311.627 158.53 312.13 157.344 311.565L131.576 299.278C130.39 298.712 129.887 297.293 130.453 296.107L139.812 276.479C143.769 268.18 153.707 264.661 162.008 268.619Z" fill="white"/>
<path d="M227.027 299.622C235.328 303.581 238.85 313.517 234.892 321.817L225.533 341.445C224.968 342.63 223.548 343.133 222.362 342.567L196.595 330.281C195.409 329.715 194.906 328.295 195.471 327.11L204.83 307.482C208.787 299.183 218.725 295.664 227.027 299.622Z" fill="white"/>
<path d="M292.045 330.625C300.346 334.583 303.868 344.52 299.911 352.82L290.551 372.447C289.986 373.633 288.566 374.136 287.38 373.57L261.613 361.283C260.427 360.718 259.924 359.298 260.489 358.113L269.848 338.485C273.806 330.186 283.744 326.667 292.045 330.625Z" fill="white"/>
<path d="M357.063 361.628C365.365 365.586 368.886 375.523 364.929 383.823L355.57 403.45C355.004 404.636 353.585 405.139 352.399 404.573L326.631 392.286C325.445 391.721 324.942 390.301 325.508 389.116L334.867 369.488C338.824 361.189 348.762 357.669 357.063 361.628Z" fill="white"/>
<path d="M422.082 392.631C430.383 396.589 433.905 406.526 429.947 414.825L420.588 434.453C420.023 435.639 418.603 436.141 417.417 435.576L391.65 423.289C390.464 422.724 389.96 421.304 390.526 420.118L399.885 400.491C403.842 392.191 413.78 388.672 422.082 392.631Z" fill="white"/>
<path d="M487.1 423.634C495.401 427.592 498.923 437.529 494.965 445.828L485.606 465.456C485.041 466.641 483.621 467.144 482.435 466.579L456.668 454.292C455.482 453.726 454.979 452.307 455.544 451.121L464.903 431.494C468.861 423.194 478.798 419.675 487.1 423.634Z" fill="white"/>
<path d="M-23.0238 106.475C-21.8379 107.04 -21.3348 108.46 -21.9002 109.646L-31.2592 129.273C-35.2167 137.573 -45.1544 141.092 -53.4559 137.133C-61.7573 133.175 -65.2789 123.238 -61.3215 114.939L-51.9624 95.311C-51.397 94.1254 -49.9773 93.6227 -48.7914 94.1882L-23.0238 106.475Z" fill="white"/>
<path d="M41.9945 137.478C43.1804 138.043 43.6835 139.463 43.1182 140.649L33.7591 160.276C29.8016 168.576 19.8639 172.095 11.5624 168.136C3.26097 164.178 -0.260566 154.241 3.69683 145.941L13.0559 126.314C13.6213 125.128 15.041 124.626 16.2269 125.191L41.9945 137.478Z" fill="white"/>
<path d="M107.013 168.481C108.199 169.046 108.702 170.466 108.136 171.651L98.7774 191.279C94.8199 199.578 84.8822 203.097 76.5807 199.139C68.2793 195.181 64.7577 185.244 68.7151 176.944L78.0742 157.317C78.6396 156.131 80.0593 155.628 81.2452 156.194L107.013 168.481Z" fill="white"/>
<path d="M172.031 199.484C173.217 200.049 173.72 201.469 173.155 202.654L163.796 222.282C159.838 230.581 149.9 234.1 141.599 230.142C133.298 226.183 129.776 216.247 133.733 207.947L143.093 188.32C143.658 187.134 145.078 186.631 146.264 187.197L172.031 199.484Z" fill="white"/>
<path d="M237.049 230.486C238.235 231.052 238.738 232.471 238.173 233.657L228.814 253.285C224.857 261.584 214.919 265.103 206.617 261.145C198.316 257.186 194.794 247.249 198.752 238.95L208.111 219.322C208.676 218.137 210.096 217.634 211.282 218.2L237.049 230.486Z" fill="white"/>
<path d="M302.068 261.489C303.254 262.055 303.757 263.474 303.191 264.66L293.832 284.287C289.875 292.587 279.937 296.106 271.636 292.148C263.334 288.189 259.813 278.252 263.77 269.953L273.129 250.325C273.695 249.14 275.114 248.637 276.3 249.202L302.068 261.489Z" fill="white"/>
<path d="M367.086 292.492C368.272 293.058 368.775 294.477 368.21 295.663L358.851 315.29C354.893 323.59 344.955 327.109 336.654 323.15C328.353 319.192 324.831 309.255 328.788 300.956L338.147 281.328C338.713 280.142 340.133 279.64 341.318 280.205L367.086 292.492Z" fill="white"/>
<path d="M432.104 323.495C433.29 324.06 433.793 325.48 433.228 326.666L423.869 346.293C419.911 354.593 409.974 358.112 401.672 354.153C393.371 350.195 389.849 340.258 393.807 331.959L403.166 312.331C403.731 311.145 405.151 310.643 406.337 311.208L432.104 323.495Z" fill="white"/>
<path d="M497.123 354.498C498.309 355.063 498.812 356.483 498.246 357.668L488.887 377.296C484.93 385.595 474.992 389.114 466.691 385.156C458.389 381.198 454.868 371.261 458.825 362.961L468.184 343.334C468.749 342.148 470.169 341.645 471.355 342.211L497.123 354.498Z" fill="white"/>
<path d="M-16.897 60.463C-8.59554 64.4214 -5.07401 74.3583 -9.03141 82.6577L-18.3905 102.285C-18.9558 103.471 -20.3755 103.974 -21.5615 103.408L-47.329 91.1213C-48.515 90.5559 -49.0181 89.1363 -48.4527 87.9507L-39.0936 68.323C-35.1362 60.0237 -25.1984 56.5046 -16.897 60.463Z" fill="white"/>
<path d="M48.1213 91.4658C56.4228 95.4242 59.9443 105.361 55.9869 113.661L46.6278 133.288C46.0625 134.474 44.6428 134.976 43.4569 134.411L17.6893 122.124C16.5033 121.559 16.0002 120.139 16.5656 118.954L25.9247 99.3259C29.8821 91.0265 39.8199 87.5074 48.1213 91.4658Z" fill="white"/>
<path d="M113.14 122.469C121.441 126.427 124.963 136.364 121.005 144.663L111.646 164.291C111.081 165.477 109.661 165.979 108.475 165.414L82.7076 153.127C81.5216 152.562 81.0185 151.142 81.5839 149.956L90.943 130.329C94.9004 122.029 104.838 118.51 113.14 122.469Z" fill="white"/>
<path d="M178.158 153.472C186.459 157.43 189.981 167.367 186.024 175.666L176.664 195.294C176.099 196.479 174.679 196.982 173.493 196.417L147.726 184.13C146.54 183.564 146.037 182.145 146.602 180.959L155.961 161.332C159.919 153.032 169.856 149.513 178.158 153.472Z" fill="white"/>
<path d="M243.176 184.474C251.478 188.433 254.999 198.37 251.042 206.669L241.683 226.297C241.117 227.482 239.698 227.985 238.512 227.42L212.744 215.133C211.558 214.567 211.055 213.148 211.621 211.962L220.98 192.334C224.937 184.035 234.875 180.516 243.176 184.474Z" fill="white"/>
<path d="M308.195 215.477C316.496 219.436 320.018 229.372 316.06 237.672L306.701 257.3C306.136 258.485 304.716 258.988 303.53 258.422L277.762 246.136C276.577 245.57 276.073 244.15 276.639 242.965L285.998 223.337C289.955 215.038 299.893 211.519 308.195 215.477Z" fill="white"/>
<path d="M373.213 246.48C381.514 250.438 385.036 260.375 381.078 268.675L371.719 288.302C371.154 289.488 369.734 289.991 368.548 289.425L342.781 277.138C341.595 276.573 341.092 275.153 341.657 273.968L351.016 254.34C354.974 246.041 364.911 242.522 373.213 246.48Z" fill="white"/>
<path d="M438.231 277.483C446.533 281.441 450.054 291.378 446.097 299.678L436.738 319.305C436.172 320.491 434.753 320.994 433.567 320.428L407.799 308.141C406.613 307.576 406.11 306.156 406.675 304.971L416.035 285.343C419.992 277.044 429.93 273.524 438.231 277.483Z" fill="white"/>
<path d="M503.249 308.486C511.551 312.444 515.072 322.381 511.115 330.68L501.756 350.308C501.191 351.494 499.771 351.996 498.585 351.431L472.817 339.144C471.631 338.579 471.128 337.159 471.694 335.973L481.053 316.346C485.01 308.046 494.948 304.527 503.249 308.486Z" fill="white"/>
<path d="M-6.87423 -8.67283C-5.68831 -8.10734 -5.18521 -6.6878 -5.75055 -5.50217L-15.1096 14.1255C-19.0671 22.4248 -29.0048 25.9439 -37.3063 21.9855C-45.6077 18.0271 -49.1293 8.09021 -45.1719 -0.209182L-35.8128 -19.8368C-35.2474 -21.0224 -33.8277 -21.5251 -32.6418 -20.9597L-6.87423 -8.67283Z" fill="white"/>
<path d="M58.1441 22.33C59.33 22.8955 59.8331 24.315 59.2678 25.5007L49.9087 45.1283C45.9512 53.4277 36.0135 56.9467 27.712 52.9883C19.4106 49.0299 15.889 39.093 19.8464 30.7937L29.2055 11.166C29.7709 9.98039 31.1906 9.4777 32.3765 10.0432L58.1441 22.33Z" fill="white"/>
<path d="M123.162 53.3328C124.348 53.8983 124.851 55.3179 124.286 56.5035L114.927 76.1311C110.97 84.4305 101.032 87.9496 92.7303 83.9912C84.4289 80.0328 80.9073 70.0959 84.8647 61.7965L94.2238 42.1689C94.7892 40.9832 96.2089 40.4805 97.3948 41.046L123.162 53.3328Z" fill="white"/>
<path d="M188.181 84.3357C189.367 84.9012 189.87 86.3207 189.304 87.5063L179.945 107.134C175.988 115.433 166.05 118.952 157.749 114.994C149.447 111.036 145.926 101.099 149.883 92.7993L159.242 73.1717C159.807 71.9861 161.227 71.4834 162.413 72.0489L188.181 84.3357Z" fill="white"/>
<path d="M253.199 115.339C254.385 115.904 254.888 117.324 254.323 118.509L244.964 138.137C241.006 146.436 231.068 149.955 222.767 145.997C214.465 142.038 210.944 132.102 214.901 123.802L224.26 104.175C224.826 102.989 226.245 102.486 227.431 103.052L253.199 115.339Z" fill="white"/>
<path d="M318.217 146.341C319.403 146.907 319.906 148.326 319.341 149.512L309.982 169.14C306.024 177.439 296.087 180.958 287.785 177C279.484 173.041 275.962 163.104 279.92 154.805L289.279 135.177C289.844 133.992 291.264 133.489 292.45 134.055L318.217 146.341Z" fill="white"/>
<path d="M383.236 177.344C384.422 177.91 384.925 179.329 384.359 180.515L375 200.142C371.043 208.442 361.105 211.961 352.804 208.003C344.502 204.044 340.981 194.107 344.938 185.808L354.297 166.18C354.862 164.995 356.282 164.492 357.468 165.057L383.236 177.344Z" fill="white"/>
<path d="M448.254 208.347C449.44 208.913 449.943 210.332 449.378 211.518L440.019 231.145C436.061 239.445 426.123 242.964 417.822 239.005C409.52 235.047 405.999 225.11 409.956 216.811L419.315 197.183C419.881 195.997 421.3 195.495 422.486 196.06L448.254 208.347Z" fill="white"/>
<path d="M513.272 239.35C514.458 239.915 514.961 241.335 514.396 242.521L505.037 262.148C501.079 270.448 491.142 273.967 482.84 270.008C474.539 266.05 471.017 256.113 474.975 247.814L484.334 228.186C484.899 227 486.319 226.498 487.505 227.063L513.272 239.35Z" fill="white"/>
<path d="M-0.747391 -54.6848C7.55405 -50.7264 11.0756 -40.7895 7.11819 -32.4902L-2.2409 -12.8625C-2.80625 -11.6769 -4.22594 -11.1742 -5.41186 -11.7397L-31.1795 -24.0265C-32.3654 -24.592 -32.8685 -26.0115 -32.3031 -27.1972L-22.944 -46.8248C-18.9866 -55.1242 -9.04884 -58.6432 -0.747391 -54.6848Z" fill="white"/>
<path d="M64.2709 -23.682C72.5724 -19.7236 76.0939 -9.78671 72.1365 -1.48732L62.7774 18.1403C62.2121 19.3259 60.7924 19.8286 59.6064 19.2632L33.8389 6.97633C32.6529 6.41085 32.1498 4.9913 32.7152 3.80567L42.0743 -15.822C46.0317 -24.1213 55.9695 -27.6404 64.2709 -23.682Z" fill="white"/>
<path d="M129.289 7.32084C137.591 11.2792 141.112 21.2161 137.155 29.5155L127.796 49.1432C127.23 50.3288 125.811 50.8315 124.625 50.266L98.8572 37.9792C97.6712 37.4137 97.1681 35.9941 97.7335 34.8085L107.093 15.1809C111.05 6.8815 120.988 3.36244 129.289 7.32084Z" fill="white"/>
<path d="M194.308 38.3237C202.609 42.2821 206.131 52.219 202.173 60.5184L192.814 80.146C192.249 81.3316 190.829 81.8343 189.643 81.2688L163.875 68.982C162.69 68.4165 162.186 66.997 162.752 65.8113L172.111 46.1837C176.068 37.8843 186.006 34.3653 194.308 38.3237Z" fill="white"/>
<path d="M259.326 69.3265C267.627 73.2849 271.149 83.2218 267.191 91.5212L257.832 111.149C257.267 112.334 255.847 112.837 254.661 112.272L228.894 99.9848C227.708 99.4194 227.205 97.9998 227.77 96.8142L237.129 77.1866C241.087 68.8872 251.024 65.3681 259.326 69.3265Z" fill="white"/>
<path d="M324.344 100.329C332.646 104.288 336.167 114.225 332.21 122.524L322.851 142.152C322.285 143.337 320.866 143.84 319.68 143.275L293.912 130.988C292.726 130.422 292.223 129.003 292.788 127.817L302.148 108.189C306.105 99.89 316.043 96.371 324.344 100.329Z" fill="white"/>
<path d="M389.362 131.332C397.664 135.291 401.185 145.227 397.228 153.527L387.869 173.155C387.304 174.34 385.884 174.843 384.698 174.277L358.93 161.991C357.744 161.425 357.241 160.005 357.807 158.82L367.166 139.192C371.123 130.893 381.061 127.374 389.362 131.332Z" fill="white"/>
<path d="M454.381 162.335C462.682 166.293 466.204 176.23 462.246 184.53L452.887 204.157C452.322 205.343 450.902 205.846 449.716 205.28L423.949 192.993C422.763 192.428 422.26 191.008 422.825 189.823L432.184 170.195C436.142 161.896 446.079 158.377 454.381 162.335Z" fill="white"/>
<path d="M519.399 193.338C527.701 197.296 531.222 207.233 527.265 215.533L517.906 235.16C517.34 236.346 515.921 236.849 514.735 236.283L488.967 223.996C487.781 223.431 487.278 222.011 487.843 220.826L497.202 201.198C501.16 192.899 511.098 189.379 519.399 193.338Z" fill="white"/>
<path d="M9.27537 -123.821C10.4613 -123.255 10.9644 -121.836 10.399 -120.65L1.03995 -101.022C-2.91748 -92.723 -12.8552 -89.2039 -21.1567 -93.1623C-29.4581 -97.1207 -32.9797 -107.058 -29.0223 -115.357L-19.6632 -134.985C-19.0978 -136.17 -17.6781 -136.673 -16.4922 -136.107L9.27537 -123.821Z" fill="white"/>
<path d="M74.2937 -92.8178C75.4796 -92.2523 75.9827 -90.8328 75.4174 -89.6472L66.0583 -70.0195C62.1008 -61.7202 52.1631 -58.2011 43.8616 -62.1595C35.5602 -66.1179 32.0386 -76.0548 35.996 -84.3542L45.3551 -103.982C45.9205 -105.167 47.3402 -105.67 48.5261 -105.105L74.2937 -92.8178Z" fill="white"/>
<path d="M139.312 -61.815C140.498 -61.2495 141.001 -59.83 140.436 -58.6443L131.077 -39.0167C127.119 -30.7173 117.181 -27.1983 108.88 -31.1567C100.578 -35.1151 97.0569 -45.052 101.014 -53.3513L110.373 -72.979C110.939 -74.1646 112.358 -74.6673 113.544 -74.1018L139.312 -61.815Z" fill="white"/>
<path d="M204.33 -30.8122C205.516 -30.2467 206.019 -28.8271 205.454 -27.6415L196.095 -8.01387C192.137 0.285511 182.2 3.80457 173.898 -0.153829C165.597 -4.11223 162.075 -14.0491 166.033 -22.3485L175.392 -41.9761C175.957 -43.1618 177.377 -43.6645 178.563 -43.099L204.33 -30.8122Z" fill="white"/>
<path d="M269.349 0.190678C270.535 0.756164 271.038 2.17571 270.472 3.36134L261.113 22.989C257.156 31.2883 247.218 34.8074 238.917 30.849C230.615 26.8906 227.094 16.9537 231.051 8.65433L240.41 -10.9733C240.975 -12.1589 242.395 -12.6616 243.581 -12.0961L269.349 0.190678Z" fill="white"/>
<path d="M334.367 31.1935C335.553 31.759 336.056 33.1785 335.491 34.3642L326.131 53.9918C322.174 62.2912 312.236 65.8102 303.935 61.8518C295.633 57.8934 292.112 47.9566 296.069 39.6572L305.428 20.0295C305.994 18.8439 307.413 18.3412 308.599 18.9067L334.367 31.1935Z" fill="white"/>
<path d="M399.385 62.1964C400.571 62.7618 401.074 64.1814 400.509 65.367L391.15 84.9946C387.192 93.294 377.255 96.8131 368.953 92.8547C360.652 88.8963 357.13 78.9594 361.088 70.66L370.447 51.0324C371.012 49.8467 372.432 49.344 373.618 49.9095L399.385 62.1964Z" fill="white"/>
<path d="M464.404 93.1992C465.589 93.7647 466.093 95.1842 465.527 96.3699L456.168 115.997C452.211 124.297 442.273 127.816 433.971 123.858C425.67 119.899 422.148 109.962 426.106 101.663L435.465 82.0352C436.03 80.8496 437.45 80.3469 438.636 80.9124L464.404 93.1992Z" fill="white"/>
<path d="M529.422 124.202C530.608 124.768 531.111 126.187 530.546 127.373L521.186 147C517.229 155.3 507.291 158.819 498.99 154.86C490.688 150.902 487.167 140.965 491.124 132.666L500.483 113.038C501.049 111.852 502.468 111.35 503.654 111.915L529.422 124.202Z" fill="white"/>
<path d="M15.4022 -169.833C23.7037 -165.874 27.2252 -155.937 23.2678 -147.638L13.9087 -128.01C13.3434 -126.825 11.9237 -126.322 10.7377 -126.888L-15.0299 -139.174C-16.2158 -139.74 -16.7189 -141.159 -16.1535 -142.345L-6.79444 -161.973C-2.83701 -170.272 7.10076 -173.791 15.4022 -169.833Z" fill="white"/>
<path d="M80.4205 -138.83C88.722 -134.871 92.2435 -124.935 88.2861 -116.635L78.927 -97.0075C78.3617 -95.8219 76.942 -95.3192 75.756 -95.8847L49.9885 -108.172C48.8025 -108.737 48.2994 -110.157 48.8648 -111.342L58.2239 -130.97C62.1813 -139.269 72.1191 -142.788 80.4205 -138.83Z" fill="white"/>
<path d="M145.439 -107.827C153.74 -103.869 157.262 -93.9317 153.304 -85.6323L143.945 -66.0047C143.38 -64.8191 141.96 -64.3164 140.774 -64.8818L115.007 -77.1687C113.821 -77.7342 113.318 -79.1537 113.883 -80.3393L123.242 -99.967C127.2 -108.266 137.137 -111.785 145.439 -107.827Z" fill="white"/>
<path d="M210.457 -76.8242C218.759 -72.8658 222.28 -62.9289 218.323 -54.6295L208.964 -35.0018C208.398 -33.8162 206.979 -33.3135 205.793 -33.879L180.025 -46.1658C178.839 -46.7313 178.336 -48.1509 178.901 -49.3365L188.26 -68.9641C192.218 -77.2635 202.156 -80.7826 210.457 -76.8242Z" fill="white"/>
<path d="M275.475 -45.8213C283.777 -41.8629 287.298 -31.926 283.341 -23.6266L273.982 -3.99901C273.417 -2.81338 271.997 -2.31069 270.811 -2.87617L245.043 -15.163C243.857 -15.7285 243.354 -17.148 243.92 -18.3337L253.279 -37.9613C257.236 -46.2607 267.174 -49.7797 275.475 -45.8213Z" fill="white"/>
<path d="M340.494 -14.8185C348.795 -10.8601 352.317 -0.923196 348.359 7.37619L339 27.0038C338.435 28.1895 337.015 28.6922 335.829 28.1267L310.062 15.8398C308.876 15.2744 308.373 13.8548 308.938 12.6692L318.297 -6.95845C322.255 -15.2578 332.192 -18.7769 340.494 -14.8185Z" fill="white"/>
<path d="M405.512 16.1843C413.814 20.1427 417.335 30.0796 413.378 38.379L404.019 58.0067C403.453 59.1923 402.034 59.695 400.848 59.1295L375.08 46.8427C373.894 46.2772 373.391 44.8576 373.956 43.672L383.315 24.0444C387.273 15.745 397.211 12.226 405.512 16.1843Z" fill="white"/>
<path d="M470.53 47.1872C478.832 51.1456 482.353 61.0825 478.396 69.3819L469.037 89.0095C468.472 90.1951 467.052 90.6978 465.866 90.1323L440.098 77.8455C438.912 77.28 438.409 75.8605 438.975 74.6749L448.334 55.0472C452.291 46.7478 462.229 43.2288 470.53 47.1872Z" fill="white"/>
<path d="M535.549 78.19C543.85 82.1484 547.372 92.0853 543.414 100.385L534.055 120.012C533.49 121.198 532.07 121.701 530.884 121.135L505.117 108.848C503.931 108.283 503.428 106.863 503.993 105.678L513.352 86.0501C517.309 77.7507 527.247 74.2316 535.549 78.19Z" fill="white"/>
</g>
<defs>
<clipPath id="clip0_628_61">
<rect width="430" height="936" fill="white"/>
</clipPath>
</defs>
</svg>
