<svg width="394" height="469" viewBox="0 0 394 469" fill="none" xmlns="http://www.w3.org/2000/svg">
<path d="M380.866 126.117C388.12 126.117 394 131.999 394 139.255V424.333C394 449.002 374.008 469 349.347 469H44.6533C19.992 469 3.13087e-06 449.002 0 424.333V139.255C9.27454e-06 131.999 5.88046 126.117 13.1338 126.117H380.866Z" fill="white"/>
<path d="M365.106 0C381.064 0 394 12.9402 394 28.9023V86.7061C394 93.9615 388.119 99.8428 380.866 99.8428H13.1338C5.88051 99.8428 9.37776e-05 93.9615 0 86.7061V28.9023C0 12.9402 12.9362 0 28.8936 0H365.106Z" fill="white"/>
</svg>
