<svg width="258" height="658" viewBox="0 0 258 658" fill="none" xmlns="http://www.w3.org/2000/svg">
<path d="M0 128.968C0 57.741 57.7553 0 129 0C200.245 0 258 57.7409 258 128.968V297.416C258 307.591 249.749 315.84 239.571 315.84H18.4286C8.25076 315.84 0 307.591 0 297.416V128.968Z" fill="white"/>
<path d="M0 529.032C0 600.259 57.7553 658 129 658C200.245 658 258 600.259 258 529.032V360.584C258 350.409 249.749 342.16 239.571 342.16H18.4286C8.25076 342.16 0 350.409 0 360.584V529.032Z" fill="white"/>
</svg>
